<mxfile host="app.diagrams.net" agent="Mozilla/5.0 (X11; Linux x86_64) AppleWebKit/537.36 (KHTML, like Gecko) Chrome/139.0.0.0 Safari/537.36" version="28.1.2">
  <diagram name="Page-1" id="6m7xSRvh9uqVB16omkQb">
    <mxGraphModel dx="1360" dy="793" grid="1" gridSize="9" guides="1" tooltips="1" connect="1" arrows="1" fold="1" page="1" pageScale="1" pageWidth="1100" pageHeight="1700" math="0" shadow="0">
      <root>
        <mxCell id="0" />
        <mxCell id="1" parent="0" />
        <mxCell id="k7_C4-kCgMkRN1-nabnP-82" style="edgeStyle=orthogonalEdgeStyle;rounded=0;orthogonalLoop=1;jettySize=auto;html=1;entryX=0.5;entryY=0;entryDx=0;entryDy=0;" parent="1" source="k7_C4-kCgMkRN1-nabnP-55" target="k7_C4-kCgMkRN1-nabnP-41" edge="1">
          <mxGeometry relative="1" as="geometry">
            <mxPoint x="740" y="640" as="targetPoint" />
          </mxGeometry>
        </mxCell>
        <mxCell id="k7_C4-kCgMkRN1-nabnP-55" value="" style="rounded=1;whiteSpace=wrap;html=1;fillColor=#fff2cc;strokeColor=#d6b656;strokeWidth=2;" parent="1" vertex="1">
          <mxGeometry x="700" y="545.74" width="80" height="32.48" as="geometry" />
        </mxCell>
        <mxCell id="k7_C4-kCgMkRN1-nabnP-81" style="edgeStyle=orthogonalEdgeStyle;rounded=0;orthogonalLoop=1;jettySize=auto;html=1;entryX=0.5;entryY=0;entryDx=0;entryDy=0;" parent="1" source="k7_C4-kCgMkRN1-nabnP-50" target="k7_C4-kCgMkRN1-nabnP-55" edge="1">
          <mxGeometry relative="1" as="geometry">
            <mxPoint x="700" y="530" as="targetPoint" />
          </mxGeometry>
        </mxCell>
        <mxCell id="k7_C4-kCgMkRN1-nabnP-50" value="" style="rounded=1;whiteSpace=wrap;html=1;fillColor=#fff2cc;strokeColor=#d6b656;strokeWidth=2;" parent="1" vertex="1">
          <mxGeometry x="690" y="466.48" width="100" height="30" as="geometry" />
        </mxCell>
        <mxCell id="k7_C4-kCgMkRN1-nabnP-22" value="" style="rounded=1;whiteSpace=wrap;html=1;rotation=-90;fillColor=#808080;shadow=0;glass=0;" parent="1" vertex="1">
          <mxGeometry x="226.5" y="648.48" width="105" height="10" as="geometry" />
        </mxCell>
        <mxCell id="k7_C4-kCgMkRN1-nabnP-2" value="" style="triangle;whiteSpace=wrap;html=1;rotation=-110;fillColor=#000000;rounded=1;" parent="1" vertex="1">
          <mxGeometry x="188.99999999999997" y="282.95" width="20" height="30" as="geometry" />
        </mxCell>
        <mxCell id="k7_C4-kCgMkRN1-nabnP-1" value="" style="rounded=1;whiteSpace=wrap;html=1;rotation=-111;fillColor=#B3B3B3;shadow=1;" parent="1" vertex="1">
          <mxGeometry x="170.00000000000003" y="260.97999999999996" width="40" height="30" as="geometry" />
        </mxCell>
        <mxCell id="k7_C4-kCgMkRN1-nabnP-3" value="" style="triangle;whiteSpace=wrap;html=1;rotation=-75;fillColor=#000000;rounded=1;" parent="1" vertex="1">
          <mxGeometry x="334.001065388364" y="270.9671277731236" width="20" height="30" as="geometry" />
        </mxCell>
        <mxCell id="k7_C4-kCgMkRN1-nabnP-4" value="" style="rounded=1;whiteSpace=wrap;html=1;rotation=-75;fillColor=#B3B3B3;shadow=1;" parent="1" vertex="1">
          <mxGeometry x="330.001065388364" y="249.99712777312354" width="40" height="30" as="geometry" />
        </mxCell>
        <mxCell id="k7_C4-kCgMkRN1-nabnP-5" value="" style="triangle;whiteSpace=wrap;html=1;rotation=-60;fillColor=#000000;rounded=1;" parent="1" vertex="1">
          <mxGeometry x="619.001065388364" y="298.96712777312354" width="20" height="30" as="geometry" />
        </mxCell>
        <mxCell id="k7_C4-kCgMkRN1-nabnP-6" value="" style="rounded=1;whiteSpace=wrap;html=1;rotation=-60;fillColor=#B3B3B3;shadow=1;" parent="1" vertex="1">
          <mxGeometry x="620.001065388364" y="279.9971277731235" width="40" height="30" as="geometry" />
        </mxCell>
        <mxCell id="k7_C4-kCgMkRN1-nabnP-7" value="" style="triangle;whiteSpace=wrap;html=1;rotation=-60;fillColor=#000000;rounded=1;" parent="1" vertex="1">
          <mxGeometry x="499.00106538836405" y="278.99712777312357" width="20" height="30" as="geometry" />
        </mxCell>
        <mxCell id="k7_C4-kCgMkRN1-nabnP-8" value="" style="rounded=1;whiteSpace=wrap;html=1;rotation=-60;fillColor=#B3B3B3;shadow=1;" parent="1" vertex="1">
          <mxGeometry x="500.001065388364" y="260.97712777312347" width="40" height="30" as="geometry" />
        </mxCell>
        <mxCell id="k7_C4-kCgMkRN1-nabnP-17" value="" style="shape=image;verticalLabelPosition=bottom;labelBackgroundColor=default;verticalAlign=top;aspect=fixed;imageAspect=0;editableCssRules=.*;image=data:image/svg+xml,PHN2ZyB4bWxucz0iaHR0cDovL3d3dy53My5vcmcvMjAwMC9zdmciIGhlaWdodD0iMTAwIiB3aWR0aD0iMTAwIiBzaGFwZS1yZW5kZXJpbmc9ImNyaXNwRWRnZXMiIHZpZXdCb3g9IjAgMCA2IDYiPjxyZWN0IGZpbGw9ImJsYWNrIiBoZWlnaHQ9IjYiIHdpZHRoPSI2IiB5PSIwIiB4PSIwIi8+PHJlY3QgZmlsbD0id2hpdGUiIHk9IjEiIHg9IjEiIGhlaWdodD0iMSIgd2lkdGg9IjEiLz48cmVjdCBmaWxsPSJ3aGl0ZSIgeT0iMSIgeD0iMyIgaGVpZ2h0PSIxIiB3aWR0aD0iMS41Ii8+PHJlY3QgZmlsbD0id2hpdGUiIHk9IjEiIHg9IjQiIGhlaWdodD0iMSIgd2lkdGg9IjEiLz48cmVjdCBmaWxsPSJ3aGl0ZSIgeT0iMSIgeD0iNCIgaGVpZ2h0PSIxLjUiIHdpZHRoPSIxIi8+PHJlY3QgZmlsbD0id2hpdGUiIHk9IjIiIHg9IjIiIGhlaWdodD0iMSIgd2lkdGg9IjEiLz48cmVjdCBmaWxsPSJ3aGl0ZSIgeT0iMiIgeD0iNCIgaGVpZ2h0PSIxIiB3aWR0aD0iMSIvPjxyZWN0IGZpbGw9IndoaXRlIiB5PSIyIiB4PSI0IiBoZWlnaHQ9IjEuNSIgd2lkdGg9IjEiLz48cmVjdCBmaWxsPSJ3aGl0ZSIgeT0iMyIgeD0iMyIgaGVpZ2h0PSIxIiB3aWR0aD0iMS41Ii8+PHJlY3QgZmlsbD0id2hpdGUiIHk9IjMiIHg9IjMiIGhlaWdodD0iMS41IiB3aWR0aD0iMSIvPjxyZWN0IGZpbGw9IndoaXRlIiB5PSIzIiB4PSI0IiBoZWlnaHQ9IjEiIHdpZHRoPSIxIi8+PHJlY3QgZmlsbD0id2hpdGUiIHk9IjQiIHg9IjMiIGhlaWdodD0iMSIgd2lkdGg9IjEiLz48L3N2Zz4=;shadow=1;" parent="1" vertex="1">
          <mxGeometry x="221" y="538.98" width="60" height="60" as="geometry" />
        </mxCell>
        <mxCell id="k7_C4-kCgMkRN1-nabnP-19" value="" style="rounded=1;whiteSpace=wrap;html=1;fillColor=#666666;shadow=1;" parent="1" vertex="1">
          <mxGeometry x="274" y="685.98" width="210" height="20" as="geometry" />
        </mxCell>
        <mxCell id="k7_C4-kCgMkRN1-nabnP-20" value="" style="ellipse;whiteSpace=wrap;html=1;aspect=fixed;fillColor=#000000;shadow=1;" parent="1" vertex="1">
          <mxGeometry x="284" y="695.98" width="30" height="30" as="geometry" />
        </mxCell>
        <mxCell id="k7_C4-kCgMkRN1-nabnP-21" value="" style="ellipse;whiteSpace=wrap;html=1;aspect=fixed;fillColor=#000000;shadow=1;" parent="1" vertex="1">
          <mxGeometry x="444" y="695.98" width="30" height="30" as="geometry" />
        </mxCell>
        <mxCell id="k7_C4-kCgMkRN1-nabnP-23" value="" style="rounded=1;whiteSpace=wrap;html=1;fillColor=#808080;" parent="1" vertex="1">
          <mxGeometry x="219" y="600.98" width="65" height="10" as="geometry" />
        </mxCell>
        <mxCell id="k7_C4-kCgMkRN1-nabnP-24" value="" style="endArrow=none;dashed=1;html=1;rounded=0;exitX=0.5;exitY=0;exitDx=0;exitDy=0;" parent="1" edge="1">
          <mxGeometry width="50" height="50" relative="1" as="geometry">
            <mxPoint x="253" y="540.98" as="sourcePoint" />
            <mxPoint x="203" y="309" as="targetPoint" />
          </mxGeometry>
        </mxCell>
        <mxCell id="k7_C4-kCgMkRN1-nabnP-25" value="" style="endArrow=none;dashed=1;html=1;rounded=0;exitX=0.5;exitY=0;exitDx=0;exitDy=0;" parent="1" edge="1">
          <mxGeometry width="50" height="50" relative="1" as="geometry">
            <mxPoint x="252" y="536.98" as="sourcePoint" />
            <mxPoint x="342" y="296.98" as="targetPoint" />
          </mxGeometry>
        </mxCell>
        <mxCell id="k7_C4-kCgMkRN1-nabnP-26" value="" style="endArrow=none;dashed=1;html=1;rounded=0;exitX=0.5;exitY=0;exitDx=0;exitDy=0;" parent="1" edge="1">
          <mxGeometry width="50" height="50" relative="1" as="geometry">
            <mxPoint x="252" y="540.98" as="sourcePoint" />
            <mxPoint x="503" y="300.98" as="targetPoint" />
          </mxGeometry>
        </mxCell>
        <mxCell id="k7_C4-kCgMkRN1-nabnP-27" value="" style="endArrow=none;dashed=1;html=1;rounded=0;exitX=0.5;exitY=0;exitDx=0;exitDy=0;" parent="1" source="k7_C4-kCgMkRN1-nabnP-17" edge="1">
          <mxGeometry width="50" height="50" relative="1" as="geometry">
            <mxPoint x="370" y="560.98" as="sourcePoint" />
            <mxPoint x="621" y="320.98" as="targetPoint" />
          </mxGeometry>
        </mxCell>
        <mxCell id="k7_C4-kCgMkRN1-nabnP-28" value="" style="endArrow=classic;html=1;rounded=0;exitX=1;exitY=0.5;exitDx=0;exitDy=0;entryX=0;entryY=0.5;entryDx=0;entryDy=0;" parent="1" source="k7_C4-kCgMkRN1-nabnP-17" target="k7_C4-kCgMkRN1-nabnP-29" edge="1">
          <mxGeometry width="50" height="50" relative="1" as="geometry">
            <mxPoint x="400" y="590" as="sourcePoint" />
            <mxPoint x="470" y="570" as="targetPoint" />
            <Array as="points">
              <mxPoint x="370" y="485" />
            </Array>
          </mxGeometry>
        </mxCell>
        <mxCell id="k7_C4-kCgMkRN1-nabnP-54" style="edgeStyle=orthogonalEdgeStyle;rounded=0;orthogonalLoop=1;jettySize=auto;html=1;exitX=1;exitY=0.5;exitDx=0;exitDy=0;entryX=0;entryY=0.5;entryDx=0;entryDy=0;" parent="1" source="k7_C4-kCgMkRN1-nabnP-29" target="k7_C4-kCgMkRN1-nabnP-50" edge="1">
          <mxGeometry relative="1" as="geometry" />
        </mxCell>
        <mxCell id="k7_C4-kCgMkRN1-nabnP-29" value="" style="rounded=1;whiteSpace=wrap;html=1;fillColor=#fff2cc;strokeColor=#d6b656;strokeWidth=2;" parent="1" vertex="1">
          <mxGeometry x="484" y="446.48" width="151" height="70" as="geometry" />
        </mxCell>
        <mxCell id="k7_C4-kCgMkRN1-nabnP-30" value="" style="shape=image;verticalLabelPosition=bottom;labelBackgroundColor=default;verticalAlign=top;aspect=fixed;imageAspect=0;image=data:image/png,iVBORw0KGgoAAAANSUhEUgAAAzQAAAKPCAIAAAA0ahgiAAAQAElEQVR4AeydB3xUxdrG6b2KIBbsXcSO9ar3KvaKfqJee0NRUOmdBFLpvdfQQu8dKQEpobcEQiiB9EJ6L36PDHc8nC3Z3ZzdPXv24TeO75kz5Z3/7Dnz7DshVCkoKMjnHxIgARIgARIgARIgAX0QqPIX/5AACZAACZCAUwiwUxIgAVsJVKpUSVSFUQX/MZEACZAACZAACZAACbiRAJSZHJ3iTKKgQQKWCfAOCZAACZAACbiKAMWZq0hzHBIgARIgARIgARIwJWBSQnFmgoQFJEACJEACJEACJOA+AhRn7mPPkUmABEjAWAQ4GxIgAU0IUJxpgpGdkAAJkAAJkAAJkIA2BCjOtOHIXoxFgLMhARIgARIgAbcRoDhzG3oOTAIkQAIkQAIk4H0Eyp8xxVn5jFiDBEiABEiABEiABFxGgOLMZag5EAmQAAkYiwBnQwIk4BwCFGfO4cpeSYAESIAESIAESMAhAhRnDmFjI2MR4GxIgARIgARIQD8EKM70sxb0hARIgARIgARIwGgEHJgPxZkD0NiEBEiABEiABEiABJxFgOLMWWTZLwmQAAkYiwBnQwIk4CICFGcuAs1hSIAESIAESIAESMAWAhRntlBiHWMR4GxIgARIgARIQMcEKM50vDh0jQRIgARIgARIwLMIaOEtxZkWFNkHCZAACZAACZAACWhEgOJMI5DshgRIgASMRYCzIQEScBcBijN3kee4JEACJEACJEACJGCGAMWZGSgsMhYBzoYESIAESIAEPIkAxZknrRZ9JQESIAESIAES0BMBp/hCceYUrOyUBEiABEiABEiABBwjQHHmGDe2IgESIAFjEeBsSIAEdEOA4kw3S0FHSIAESIAESIAESKBSJYozfgqMRoDzIQESIAESIAGPJkBx5tHLR+dJgARIgARIgARcR8A1I1GcuYYzRyEBEiABEiABEiABmwhQnNmEiZVIgARIwFgEOBsSIAH9EqA40+/a0DMSIAESIAESIAEvJEBx5oWLbqwpczYkQAIkQAIkYCwCFGfGWk/OhgRIgARIgARIQCsCbuqH4sxN4DksCZAACZAACZAACZgjQHFmjgrLSIAESMBYBDgbEtAngcqVK+vTMfd6RXHmXv4cnQRIgARIgAS8l8Bff/3lvZO3PHOKM8tseEePBOgTCZAACZAACRicAMXZlQWGeEcqKysrLS0tKSkpvvyniH9IgARIgARIgAS0IIB9VXRTWFgIA5fYbUtLS7HzioRdGOnKruye/+llVO8SZ5Ur/322jbXH5wAfCHw4MjIyEhMTY2JioqKijh49un///u3bt69YsSIkJGTMmDFDhw4NDg729fX18fHx9f079+EfEiABEiABEiAB+wkMGDAAjXx9fbGxDhkyBJvsrFmzsOFi28Xme+zYMWzE2I6xKWNrxgaNbRqbNbZsKKbKlf/evmEgVa58xRa3UGIpVa58paalCrot9yRxVrny35QrV/47tx2oWDzkWGbo9MzMTCz/nj171qxZM3fu3NGjR+OD0rlz5+++++7//u//3nrrLeTff/99165dBw4ciA8Q9NnYsWPHjRs3duzf+Tj+IQESIAH9E6CHJKBXAmPHjh02bBjEGTZZbLXYfD/88EOx+cLu0qULNmVszdig165di8369OnT0GrYvrGJYyvH7i9yGJUrW9QDoo7IUdPjkieJM0FZ5ABdufI/q1K58j82biFVrvx3CUQ3oqZ5eXkRERGrV6/GZxXKvXfv3t26dYMgQz58+HB8AjZu3Hjo0KHY2NicnJz8/PyCggIZdMUHgokESIAESIAESEBbAoiNYastKCjAtovNF1swNmJsx/PmzcPWjA0a23T37t179eqFeBu2b4RUIiMjc3Nz0RCbOzZ6K6ly5b81gJUKOr/lSeJMhVKqNJQrbVxi2bDe6enpBw8enDp16k8//dShQ4c+ffoMHjx45syZWPvDhw/Hx8dDtGGNod6gx9EEDa2kypU9e6WtTE3Pt+gbCZAACZCAYQhUrnxlJ1Xt2mKC2IixHUMCYmvGBh0XF4fNGls2Nm5E2hBYwW7evn17xNV27dqVlpYGbYcmZrsSHVaufGU4celBuQeLM0G5cuUr6LE8kFnZ2dk4rt6xY0ffvn1FmBQB0uXLlx84cODcuXOQa1hyrD0qi+a25w40sb1z1iQBEiABEiABwxOwdyeF9sKWjY370qVL2MSxla9cuRJxls8+++zdd9/t379/WFgYQm5ZWVkQAOgcSclQdam8JWzd5h4pzoAbqXLlv2UZjLKyMsTJzp49u2HDBgjqzz///JNPPpk8eTIUd1JSEtYMMhx1UFO1DJUr/92DqlB1Wbly+XVUTXhJAiRAAiRAAiRQLoHKle3YYbGJYyuHCMMZaHJyMrb4iRMnYrv/73//GxwcvH79esgAEUsrd1z9V/AwcVa58t8LWfnyH6wTBDW0F1ZoxowZUNCdOnUaOnTo7t27xQ8PooL1BSi3AprbUgfVmEiABEjAfQQ4Mgl4JIGK7LAQaoi8ZGZmHjp0aNy4cb/99htkwNSpU/fs2YNCyAOPJPI/pz1MnMmFBPfc3FyEynB82bVr18DAwFWrViUkJGirmiEC/weK/ycBEiABEiABEtAdAegBnHvGx8dDBgQFBfXo0aNfv34bN25EgA23dOeubQ55njjDGqSmpm7atOmXX37p0qXL3Llzw8PDUYJQp21TtqOW1IJ2tGHVihBgWxIgARIgARJwiABkwKVLlxBIgzDo3Llz+/btV69ejQNQyAYbd3MbqznknX2NPEacARmiYjExMYsWLfr888+/+uqrJUuW4DI/Px+xTeWkGe5S0qBNAiRAAiRAAt5DAJIAwuDixYsrV6784YcfoBYgG8SPo/3111+CA3QCRIWwlTnKlZdutPUozoBMABI56ED2QoctW7ZswIABOMTcsWNH1uW/moFbpgnNTQtZQgIkQAIkQAIk4CUEoARwppmdnR0WFoZDtt69ey9duhRCAnJCEBACAzmSKNFVrkdxBlLAKnIYODZev369r68vlNny5cszMzOhiwVE1BEGcxIgARLwHgKcKQmQgHUCEA+oAJEAwYBoDlSEz+U/K1aswCUKcRdJVIOht6QLcQZ8plzADueYERERfS//QdgsLi6uuLhYWVO3WJVO0iYBEiABEiABEnA9AYgEITAgHmJjYxHfgULr379/ZGQkBAbuwiWRw9BV0oU4k2gERABC4BHhxwkTJnz++eezZs06c+YMSiDXcIvJQAQ4FRIgARIgARLQkoAUEqJTKTBgQEicP38+JCTks88+g8CAjRKUi5rIlTYu3Zh0Ic7k/MEFCQeXGzdu7NOnT3Bw8KlTp6S8VRGXrWiQAAmQAAmQAAmQAAhARSC/nMxkuFtQUABpERQU1L179w0bNuCUE4Wiqn5khl7EmSCCwOPp06ehZ6HMVq9eDZUmkQGc0sYlEwmQAAmQAAmQAAnYSwByApps/fr1vXr1guSA8CgpKbG3E6fWd6k4Aw4xGSHFhC1y3MrLy9u5c+egQYPGjRsXHR0NoSZuITetj0ImEiABEvAKApwkCZCAEwiUlpaePXsWkgPCA/IDIkQMAkEiDDfmLhVnUmOpZo7L5ORkHAN37doVAbO0tDSUKKGoLpW3aJMACZAACZAACZCAYwQgOdasWdO5c+cZM2YkJSWVlZVJreJYh5q0cqk4M+txUVERTn99fX379+9/8uTJwsJCUU0PdIQnzLUiwH5IgARIgARIQG8ECi7/FBp0iJ+fHwQJZInbFYgrxJmVuFdOTk5YWBhk2aJFi2Ara0rb7Yz09jGiPyRAAiRAAiRAAioCFbmE5IAICQ0N7du377Zt27KystAbCpFguD65Qpyp1JWcanp6+pIlSyBUN2/eDCiWJi/rW6rAchIgARIgARIgARKwi4AUJ9LIzc3dsmWLn5/fsmXLMjIyUI5kV59aVXaFOFP5Kqaan5+P893g4OCDBw8ioog6ohyGMpktVFagTQIkQALGIsDZkAAJuIKADP1IA6MWFhYeOnQoKCho+vTpECoocUtytTiD2CorK7t48SIOdwcPHhwTE1NSUoJCTF5JB5cimS0Ut5iTAAmQAAmQAAmQgLYEoFIgTiBRBg4cCLmCS237t6U3V4uz4uLiiIiIgICA2bNn40xXaC+R2+Iu63gSAfpKAiRAAiRAAp5GAJoECRIlJCQEIbTIyEhEkVw8CZeKs9LS0pMnT44YMWL58uXp6ekuniqHIwESIAESIAESMAgBp01DnOahewiVpUuXDhs2DEElCBiUuCy5TpwhMHj+/Hk/P7/Vl3/1v8tmyIFIgARIgARIgARIwEYCCJvJmpmZmRAtgwYNio6OVpajguoSJRomJ4ozaE8k4StCgoiZde3adePGjdnZ2aKQOQmQAAmQAAmQAAnomUBOTs7mzZt79OiB882ioiLhKpSZVDiiRNtcM3Fm6iVcR4K7UGbHjx/39fXdvn27+IuZKGQiARIgARIgARIgAf0TKCwsDAsLGzBgAMQMJA0chuYRCge2M5Jm4szUS1GC00yIzdGjR2/bto3KzBlLqJs+6QgJkAAJkAAJGJMABAwCTBAzEREREDaYJPQZciclzcSZqX/wG/rswoULI0eOXLt2rfI0E7dM67OEBEiABEiABEiABMwRcH8ZzjfXr18PfRYbGwtvnKpknCjO4DpmAmW2evXqrKwsXMoE0SZtGiRAAiRAAiRAAiSgZwJCikHMrFq1aujQoZA3TlUyzhJncDo5OXn48OHz589Xxsz0jJ6+kQAJkIDTCXAAEiABDyQAVSO8hqRZsGABAk+pqamyUNzSMHeWOMvIyFi0aNHcuXMxDQ3ddUtX0MtIVapUqar4U41/SIAESIAESIAErBKQ2yZqValSBZspklu2cg0HRdhs9uzZixcvzszM1LBbZVcaizNAh5AsLCzcvn37rFmz4uPjlYPp34b/+CRVr169Ro0aNWvWrFOnTpMmTW6++eaWLVs++eSTL774Yps2bV5//fV33nnn/fff/+ijjz777LMvvfUP500CJEACJEACZglgc2zXrl3btm3ffffdN998E1vnCy+88NRTT7Vq1eqWW27Bxlq3bt1atWrVqFEDGy62XevyAFuz9QouvgudExcXN2PGDEgdCB7T0SvusMbiDB4jnTx5cuLEiVFRUeJvNJj67YwSB1igCT4TkPPQYbVr127YsOF99933yiuvfPPNN3369BkzZgwif/PmzZs5cyamM3r0aBwzDx48OCgoKCAgwM/Pz9fXt3///n35hwRIgARIgARIQEGgX79+Pj4+gwYNwnYZGBiIrRMb6KhRoyZMmIAtdf78+XPmzMEmixbffvvta6+99uCDDzZq1AgbMbZj7MtVqlTBBi2lAnSFtM0ayspmK2heCHlz6tSpSZMmIYet8lB16cDo2oszRMsgXPbu3St/V5sDbjnQxEYWWEKoMWj2Zs2a3XrrCSJn2QAAEABJREFUrU888QRUPz49y5Yt27dv37p166ZOnTpw4MCff/75//7v/1566aVnn30WdR566KH777//7rvvvuOOO2677TbE0lq0aHHDDTdcxz8kQAIkQAIkQAJXE2jevDm2yJtuugl7JbZabJ3YQLGNInL2+OOPP/PMM9hescl26NABAg7b7po1a/bv379q1arg4GDINcTYsNVim65Xrx62bJyHWlIF2NNxy0YBgJqaJDEoRM7u3buhHyB7ZLdaeaKxOMvKypo+ffqWLVvMBvqk9643gBKxUwjze+65B7Gx77//Hlp+wYIF+ChAzn/33XfPPffcTTfd1LRp08aNG9evXx8HmjVr1hSfCXwskNAD3EYukrRhMJEACZCABQIsJgGvIwCBIjZK0xybqUjYXnGmia0WsRIcW1177bU33ngjNBlOrqDPEC5ZuHAhjB9++AGnopB0EGqoj7YqmhhLVeKCSzkopM6mTZsQC8zJyRHjYsrCqGCupTiDity8eXNoaGhBQUEF3dKwOT4BkN4ImX788cc9evSAJsMBJWJjH330UcuWLXELIgy6TbnkkrvKDa2gq7rlJQmQAAmQAAkYhoBjeyV2XmzE2LKxKSNEcu+9937wwQc4HsXp55AhQ/r06fPFF1889thjuIU6+mEFwYNTWki04uJixyZudi6aibPS0tKjR49CP8bFxQExBtPQS/TmQILKhtZ+4403goKCRowYMWDAgPbt27/88svXX3891BhOtdGncBUGknRYGihkukKA/yMBEiABEiABrQlgF0ZS9YpdWAo1BNWefvrpL7/8sm/fvsOGDYNQe+edd7CPY4tHNVVD11/C+djY2FmzZh07dkz8y06a+KCZOEtKSpo3b97evXshHoVn8FgYLs6xooiU4oT7xx9/nDNnDmTZZ5999uSTT2Ita9euDcWN5TTrW1lZmXVX0dB6Bd4lARIgARIgARKwnQA2VqRKVzdQ7dHY1iHFEG159NFH27VrN3To0JCQkI4dO9511104FcXdq1u7+gqyZ8+ePZBAEEIqzx12RRtxlp+fjwPN5cuXi2NXU9AO+2dXQ6xQ48aNsXg///zz4sWLfXx8nnnmGWgyLCpuwStQQ7LUJypYuiXKrbQVFZiTAAmQAAmQAAk4iQC2chx6YltHLA2BtBUrVnTu3PmJJ5645pprcMuWQcvd6G3pxLROdnY2VAcON3HKqbrr2IgaiDNIlqioqBkzZiQnJwufUCIMZ+fKOdeqVQuy7Keffho9enSPHj3uvvtulNi4Ws72k/2TAAl4CQFOkwRIwNkEoDGqVq0KlXbzzTf/9ttvY8aMQRQN52M4HDM7tFIqoK3ZOhUvTE1NxeEm5JAcQowrL8UQolDYVnIHxZkcDMMUFhbi9PDIkSPKY0GUWxlVq1vCDSxS8+bNcSAdEBDQqVOnVq1a4VhTOiDqaDUi+yEBEiABEiABEnAvAezsSNjoIcjuv//+Dh06+Pn5ff/99zfddBMkgco31EQJKiN3XoIEOnz4MOQQRJEYCyXK4VAIT5CUhZZsB8UZxhA94qh127ZtCC3KUJ64ZePwohN7cwyBhFbIER6DXg4ODu7evTvinA0aNFBFy1AHNZnsJMDqJEACJEACJKBfAtjchdLApl+/fv3WrVvjiHPw4MH/+te/lAEaOQFRGa1EiTTEpSY5hBDk0I4dOyCN0KFqCDigKkEdS8lBcSa6w0hxcXETJ05MTEwUJchRiNypCUMgQR3feOONUMpw4N1338UhNErMjms7DrPNWUgCJEACJEACJKAdAW16Um7uEADNmjV78803IQl+/fXXW2+9FSWmw0A8iEJpiEutcsih8ePHx8fHo38kVbdKh1W3VJcVEme5ubkrV65EHE/Dvz6q8s/SZfXq1RHJ7NmzZ9++fe+4444aNWqgJkAoZy5tlOMuEwmQAAmQAAmQgPEIyF0e2uDmm2/u0qVL7969H3300Zo1a5pOVmoD01sVL4EcgihatWpVXl6e6UDSz3IHckScifFwmHry5Mk1a9akpaWVO4y2FRCxfPHFF4H+k08+QTBT+IMhYChnrrRxCxWYSIAESEBLAuyLBEjArQTE5i5yOCL2fYiEtm3b9uvXr02bNvXq1UO5Mok6yhJt7dTUVEgjCCTIJNGzdE9c2pI7Is7EeNnZ2Vu3bj1y5EhpaaktI2lVB9BfffVVBMxeeeWV2rVrm52zslDYWAxhaOUG+yEBEiABEiABEnAvAWzucEDu78JAIeTBc88916tXr7fffrtBgwao47IEUXTo0KEtW7aIXy6GceEPcruSfeJMDIDJQ5+dPn166dKlkGh2jVfBynXr1gXoAQMGPPzww7Vq1UJvwiUYyqQslLY0lDVpCwLMSYAESIAESMBDCaj2d6gUTAQioVWrVv3792/Xrh0O2VDisgRptGzZsnPnzqkcU11a8cc+cSYmjLyoqAgDi6gdLq0MoOEtKLO33norKCjorrvuwrmyy8bVcArsigRIgARIgAS8jYC75lu1atWbb77Zx8fno48+atSokcvcQAArMjJy8eLFEEvKQW3XLfaJMzEGRj1//vzy5cvFqLYrQdG83Nys91Bmb7zxRvfu3Zs2bSoqaD5uuY6xAgmQAAmQAAmQgEcQgFQQCbKsc+fO7733nivjZxBIiGFBLDmmVewTZ2IMDAk9KP6mqDNWSIyi7LlGjRrPP/98x44d77zzzipVrvgM6Mo6tEmABEjAyQTYPQmQgMcQgJZAgrtQCy1atPjpp5/atGmDs06UuCBh6Li4uCVLlojfeYZLuwa9InRsbIMZYoCYmJgNGzZAotnYqoLVoMZatmwJrA8++GC1atVkb3BG2jRIgARIgARIgARIwCwBiId7770XQuLRRx/FWafZOpoXQpatW7cOwTP0bK9isVucFRQU4EDz7NmzUGkYz9kJ87nlllu6du36wgsv1KxZE5dyRNc4IIczlMHJkAAJkAAJkIA3EahevfoTTzzRs2dPHMEptYQmDMx2WFZWBrEEyZSfn2/vKPaJM4yEsNmOHTuysrLsHcmx+nXr1v34449ff/11nGw61gNbkQAJkAAJkAAJuI6AzkaSygkhHgR6vvrqqwYNGshCTZxVRYtk5xBLO3fuvHDhgqpCuYPaJM5kpyUlJQcOHDh58mSpS363GeKQL7744ueffw5lJn3AlJQ2LplIgARIgARIgARIQKoiJQqpGRBgQvzsww8/fPXVVyEwlHW0tZUjRkZGQjhBPtk1hE3iTM42NTV17969yMUYslxcapujcxxofv311zfeeCNsZeeqS+Ut2iRAAiSgFQH2QwIk4FkEpCoy67YQD9dddx2CPnfffbezf/gMw8EfSCYIJ3v/LSWbxJmYJKJlp0+fRoBO/lUAjCpuOSOvX79+u3btnnrqKehcZ/TPPkmABEiABEiABLyNAGJmTz755KefftqoUSPoJ+X0VZfKWw7YQiNBMkE4RUVFQUTZ3omt4gxjFBQUhIeHnz9/HrbtAzhWE+xat279zjvvNGzY0LEe2EpBgCYJkAAJkAAJkMAVAnXr1n3jjTeefvppVfTHGfIGfZ47d27//v0QUVeGt+F/5YszISSRZ2VlbdmyBRrQhm4rWuWaa655/fXX77nnnir/+61mFe2R7UmABEiABEiABLQn4Hk9Qlrcfvvtb7/99rXXXiu9h86RtrZGYWHh5s2bIaJs77YccQZfIfrQXVlZGaTfsWPHYODSqQnHwK1atXrrrbdq1Kjh1IHYOQmQAAmQAAmQgJcQgKQRM4WwQczslVdeeeyxxyA5ZKEwNM8xHORTTEwMFJT0wfooFsWZaI8eRfuSkhLovuzsbHHp1LxmzZqffPJJ8+bNoW2lA04dkZ2TAAmQQCUiIAES8BoCEDkIm3322Wd16tRxwaQhn/744w9IKRtVjUVxpmqfn5+/cePG4uJiZ88Bguz+++8XYTP4AHzOHpH9kwAJkAAJkAAJGJ4ARIWcI+xq1aq9/PLLTzzxhAieOVVvQD6tW7fO9h87syjO5ARgIBB35MiRuLg4TAaXIolpiFyUaJLXqlXr008/RS7GErkmPXtPJ5wpCZAACZAACZCAkoCpnEAJDjchOerVq4eauETupITOIaJwuAlBZcsQFsUZOkISXSAQt2fPntzcXHEpcnFX5KKk4jmk3p133vnss89Cz4reUCIM5iRAAiRAAiRAAm4n4KEOmJUTiJk9/vjjOK/DqZ2Yl9lq4lYFc4io3bt3Q1DZ0o9FcQZHpYs40zx8+LDt4ThbBjZbBxr2P//5j+lvnTVbmYUkQAIkQAIkQAIk4DAB6JzrrrvupZdeEn8BEZfahpyUjkFEHTx4EIIKoyjLzdoWxZn0DyG4kydPuuDXm8HdG264AWGzBg0amPWVhSRAAiSgHQH2RAIkQAKV6tev37p169tuuw0iRCofZ3CBmoqJiYmKihLBMzGcpREtijPpGbqDOEtKSrLrl9vK5rYbiNW1bNny7rvvhmF7K9YkARIgARIgARIgAccIQCRBeEB+yJ+ncqyfcltBh0FKRUZGwkBl5BgaCbZpKl+cFRcXnzt3LjMz07SxtiV16tQBHQTPKM7sA8vaJEACJEACJEACDhGAPGrWrFmrVq3EXwtwqA+bGkGNZWRkQFBBVpXboBxxhr7S09MvXLhQVFSECZTbncMV0HnTpk0feuihmjVrmnYCN0wLWUICJEACJEACJOBcAl7Qe/Xq1R9++OHmzZtDijh1upBSEFSQVTiTtD5Q+eIsPj4efaEjpyokELnxxhshXatWrWrqMe6aFrKEBEiABEiABEiABCpIAMLjwQcfvOmmm5x9cAcddf78+YSEhHIdtibOhCRCLxBn6LHcvipSoUaNGg888AD0GdA4e6yK+Mm2JEACHkqAbpMACZCAWQJQHQ0bNkTwrFatWmYraFWIONfFixchqzCi9T4tijMoMzQuKSlJTU1FCA629Y4qeLd27dpPPPGEUGYYuoK9sTkJkAAJkAAJkAAJWCEgxAZypGrVqrVu3drZ4gxSKiMjA7JK/A1LXFpyz6I4E23y8vIQNrPlh9csDWBjeZ06dR555BGEFm2s78XVOHUSIAESIAESIIGKEhA6R+SQH4ic1a1bF0Ktov1abQ9BBVkFcYVaYizhAC6VyaI4QyU0yM3NjYmJQSAOl6IXGJonBMyaN29+ww03OG8IzX1mhyRAAiRAAiRgOALeO6HGjRvfcccdztYhOJCErII4g8QSrM2OaE2coRnE2ZkzZ4Q4kx2hXNsExfrkk0+a/Xua2g7E3kiABEiABEiABEgABFSqCCebzzzzDHLccl6ClDp79mxOTg6GUDmAEpmsiTNosvz8/MTERPQlGzjDQOTsoYcegkRzRufskwRIwBsJcM4kQAIkYJWASttAhFj6lRFWu7HvJgZNSEgQkTPYlhpbE2fQdGifmZlppb2lfu0qr169+n333QeJZlcrViYBEiABEjtG3jMAABAASURBVCABEiCBihOAzoEIufPOO2vXrl3x3qz0gIEyMjIQ+bJSB7esiTN0kZycXFRUhHrOS5CA1157bdOmTWE4bxTP7ZmekwAJkAAJkAAJOJUAFAhSgwYNbrjhBqg0p44FWZWSkgKJZWUUa+IMx5rnz59HDo+tdFHBW6Bwxx131KpVy6mjVNBJNicBEiABEiAB4xHgjJQiqUaNGnfddZdWasRSP5BVMf/7q5bK0ZVrYU2coQ1ORpEjKdtoYiudvuWWW0BEk249rhNnsC0XghJ+uZVZgQRIgARIgASMSgARIjm1mjVr3nbbbcoSecsBw9L+jvL4+Hjk6NPSdlyOOHPer58VbsGzqlWrQpxVr14dthcmSwtTLgrRUOTWK4s6EjgupW29obiL+sJgTgI6JkDXSIAESMARAsoNEXGiFi1aQJw5dePDiFJcwRZOq0Z0mzgT3iAHhZtuuglEYDMpCcg1UxbCFkso7ipz3MIl4qWl//tT8r8/KEA5EiogoSaS6AeGaZJ1cEtp45KJBEiABEiABAxJAHGiG2+8EblTNz50npGRgRwMsRELQ+QoEcn94gxRxIYNGyJ+Jhzytly1HpUqVZIlWDNBQxriUmgs5MXFxQUFBbm5udnZ2ZDhKSkp58+fP3LkyI4dO9atW7dmzZply5YtWbJk7dq169ev3759++HDh1Eh9fK/x5WZmYlWaI5O0BV6luPCVo2IEiYSIAESIAESMBIBsdOJXM6rbt269evXl5fOMLDbpqWliZ0X/ascQAlSOeLs0qVL6AX1nJTgU+PGjevVqwfDSUPovFs5cclZlkjPxS0sJIQUpBjOqiMjIw8cOLB8+fLhw4f//vvvH3/88fPPP9+qVavWrVu/8sorH3zwwRdffPHVV1+1b9/+p59++vLLLz///PP/+7//wy1UePDBB1EZlx07dhw2bBg62b1797Fjx+Li4nJychBrw0BiRDggDdhMJEACJEACnk2A3isIiA1O5KIY+2+dOnWuueYaGKLEGTlGRDzFes/liDNEVqy3r+BdzB/iDCwq2I8BmgOF2VngRLKwsDApKWn//v0Ig40ZM6Zv374//vjjhx9+CO0VHBwcGhoaFhZ29uxZBMPy8vKg3vLz87FwqoRCcRfVUHnXrl3obciQIejkk08++f7779Ht2LFjFy9eDK0G/VdUVISh4RWSWcdYSAIkQAIkQAKeS0C1u0EzYS61a9eGLKlcuTJs5yVs0GI4S0NYE2dogziK9faoU5FUuXJlnGmCBYyK9GO8tsCOOBnE9datW0ePHt2nT58ePXr07NkTagyi6uDBgzjExOqiDiSUjHWhlVkUKryohiZYXCgwdJKamorI2dKlS9G5GKV3794jRozA0BgFdVDfbLcsJAF3EeC4JEACJFBBAqqtDRslEgRJo0aNYFSwcyvNMS42VisVcKsccYadG5WcmnC4W7NmTQwBd5F7ZxKfAxBAgthClOvUqVPjx49HQKtLly7QSYsWLdq3b19ycjKiaBBVkFYSFJpI25JRbh1UQLfoHGrs0KFDy5Ytw6Bdu3b94YcfcHJ64sQJRN0gBEX/qKwyxCVzEiABEiABEvBcAtiLIUggS2A4dRZCnFkZxZo4wx6MDdup/sEzUKhVqxZGgY0RYXhTujJXTBx6C5rs4sWLGzZs6Nix47vvvjto0KCNGzdGR0dnZGRAGKHCldpO/h8GgkDMysrC0H/88ceQIUPeeeedL7/8EhG7M2fO4NgU3goXsGQwkMsSXDKRAAmQAAmQgIcSgCCpV6+es52HOMO+iWRpIGviDG2gCZA7L2Ffr1u3bo0aNWBgFJHD8J6EKWN5oHiOHj06Z84cyLJvvvlm4cKFUGkIVkEc466ggZrCcEEuBoVKgwNwIzExcf369b/++utPP/00ffr0I0eOQLrhrnAJlYXhAsc4BAmQAAmQgM0EWNE+AtjLIEggzmCIltIQl1rl2EBlV2aHKEecYd+V7Z1k1KlTByyc1LnOuwVeyGecYI4bN65Hjx6+vr5btmyB7oEkMvUclc0uoWlNZ5QglpaTk7Nr1y7E8+DqmDFjwsPDs7Oz4ZUYzo2+CQeYkwAJkAAJkEBFCGBHw7EmZInc0VBSkQ4ttcWWKm6hfyRhK3OL4gy1kaR/yjba2tWrV/fOX3KGqOS5c+fGjx/ftWvXkSNHQvekp6fLBTMLGStittx5hcoPAEaH2IdE2717N8RZ9+7d4TYifJgIHMBd5Ewk4BQC7JQESIAEXEIAgsQFASO5t0pDNTmL4gwNkFS1Nb/EENWqVatSxaIbmo+ohw6hwJKTk5cuXdqhQ4fBgweHhYVlZGSgUOUb4KhKXH9pVnLBVYT3Dh48OHbs2M8//xynsZiOkGiu95AjkgAJkAAJkIBWBLDzukCWYBTrDrtfFXlV5AyRJ+iwPXv2dOvWrVOnTjt37kS0zOwhJpbNrDBCuU4S5gKJtn///j59+vz666+bN2/GXFBY7mdOJ/7TDRIgARIgARIAAbnbiv0LkTMoE2HjrjOSHNFS524TZ2La8M8FEtXS5F1cjthSdHT0tGnTunTpsmLFiuzsbEgZF/ug7XBYRKwg5Oa6det69+49adKkqKgoS1pT26HZGwmQAAmQgIoALytIADsaeoAygzIRNrY5lLg+uU2ciWnjQBPJXZN3Je6ioqJdu3YNHDhw9OjRx48fx6VydA8lIBYRE8F0Tp06han5+fkhhJabm4tCJhIgARIgARLQPwHlFgwbsgRJuC23OXHpstxt4kzMUFAQtofm5a4cKkCshIaG4ihzzZo1KSkppgEz1PHQ6SvdRght7dq1/fr1mzVrVnJysjEmpZwgbVcR4DgkQAIk4DYCUGYQJ6rhTUtUFbS9dLM4Q+QQ8UNtp+Ti3pQLZipHREipf//+ffv2jYiIKCwsdLF7Lh6uoKDgxIkTPj4+3bt3xxmu9SNO4FLSc7GrHI4ESIAESIAETAmYFWfYsExrOq/EzeKs6uU/zpuey3oWywapgSTt/Pz8HTt2QKnMnj07NTXVNGDmMvdcORCmn5OTs2LFih49emD6sC2NLlght1SB5SRAAiRAAiTgYgJmxZmrfXDxeKrhPHdjhgQRcxGGnAguYSMhSLZp06aAgID169dbESiiE+PlmP7WrVsHDhyIk1wcd1qZoJdoVisEeIsESIAEHCHANk4jgE3caX3b1LGbI2eQMja5qb9KcuWkAR+lnZubu2jRosDAwH379uFkE7e8MEGfHTx4cPDgwQsWLMjMzBQETFdcQhMVmJMACZAACZCAlxNwszjzdPoqqYFLpPT09FmzZkGZHT9+3PoPXXn69E39h9JCkuXFxcWnTp0CiqlTpwIL4Cjvymo0vJwAp08CJEACJKAkQHGmpGG3bSo10tLSoMxGjhx5/vz50tJS6z2aNrdeX+d3MR3ILySlnzi1TElJGTFixPjx4+Pj41V3lTVpkwAJkAAJkAAJgADFGSBUNEGUXO6iUlZWVkhIyJgxY2JjYyFKRKHIZR1xiRwlBlMqlqaDcoTNZsyYMXPmTJDBJaYvchhMJEACJEACJKBnAtivkVzpIcWZBrSFzsjNzZ0/f/7kyZMTExNFibJrW0qU9Q1mY/oJCQlQrvPmzUtNTcXsXPxBx4hMJEACJODJBOi72whgC0Ny5fAUZ9rQLigoWLBgwbhx42RkSJt+DdQLPtmAM2nSpIULF+bl5RloZpwKCZAACZAACWhJgOJMA5qQGitWrMBp5pkzZ+RpJiJDSBr0bqAuoM8QVgwICFi1ahUCjQaaGadiDwHWJQESIAESsEqA4swqHqs3hfYqKSnZsWMHYmbR0dEQH6IFbsFGEpfMlQQyMjKGDh26detWhBuV5bRJgARIgARIgARAgOIMEBxM0F5I586dGz169JEjR2TMDN2hHDmTWQKAc/r06YkTJwJauX+h1WwPLCQBEiABEiABAxOgOKvQ4iIINHbs2D179hQXF0NzVKgvb2pcVFQUHh4+ffp0SFty86aV51xJgARsJcB63kyA4szx1c/JyZkyZcqyZcvy8/NFLzjNFAbzcgmAHtDNnTs3PT293MqsQAIkQAIkQALeQ4DizMG1Ligo2LRp04IFCy5duiS7YBBIorBkKPUr9BmCZ1u3bi0pKbFUn+WeT4AzIAESIAESsI8AxZl9vFAb8gIiLDo6es6cOciVP2qGu0zWCQCdskJaWtr48eMjIyOJUYmFNgl4JwG8Xb1z4pw1CagIUJypgFi+/N8dyIuMjIxFixb9+eefxcXF/yvm/x0hAE129OjRmTNnmj3cBGpHOmUbEiABzyTAR94z141ea0+A4sxupqWlpfv27Zs7d252drbdjdnAhEB+fv66y3+KiopUN/k1WgWElyRgVAKmD7vXCTWjLi3n5RABijO7sSUlJQ0ZMgS56bvD9P1id+/e1wDBs9jY2Hnz5h0/fhzCFwxNwXofFc6YBIxMAI+5mJ582GEgiUKRyzrSEOXMScAbCFCc2bTK8u2AME9oaChO4iAjTFuqXi6mFViiJCCplpSUHDhwYO3atVlZWWAoy5WVaXsKAfpJAuUSwGMu6oiHHTm+pOEbb0ZGhihX5rKyspA2CRibAMVZ+esrXw14fUCWrVixIo//NGT52MqvIcGiak5OztKlSyMiIgAZl0wkQALeQwDfdSMjI0eOHDls2LDExETlm8F7IHCmJKAkQHGmpKG0/7GrVKkiXhaI66xaterkyZN4lfxzm5YWBED4zJkzc+bMKSgo0KI/9kECJOAZBIqLiw8fPjxo0KDZs2dPnTrV39//4sWLeMcinOYZE6CXJOAEAhRn5UOFbkAlHL3t3bt3w4YNubm5uETiuwMQNEmCJN7RK1eu3LdvH97LmnTLTkiABPRMAK9WvE63bt3avn379evXp6enZ2ZmhoaGduvW7eDBg+KAAnX0PIUK+MamJGCNAMWZNTrKe3hxbN68WfmLzfjWUPKpiC1J4nAzJCRE+Xt9K9It25IACeiTgDiOSElJWbJkSY8ePXCmKf+yNuTapk2bAgMDd+/ejTi6+OaGWUgDNhMJGJ4AxZlNS1xWVnbq1Cl8t5NvEJuasZKdBBCe3LNnT3h4OAw7m7K6mwhwWBKwjQDUlfgaBgNv1ISEBHwTGzJkyOnTp3Gp7AOabMuWLUFBQfg+XFhYiPq4K9rCYCIBbyBAcWbTKuMFsWbNmtjYWL4gbOLlaCXgTUxMxNmx2b+05WivbEcCJOB+Ani6hcyCFIuLixs5cuTEiRPPnj2LS1Pn8DUY39MQP8PbAK9ftDWtwxISMDABirMri2v9f0lJSUuXLsU7wno13q04AUDeu3fvkSNH+JNnFYfJHkjAvQSEGlP6UFxcHB0d3bVr11mzZiF4ZkV1IXx+7NgxX1/fefPmZV3+JTvox0p93GUiAcMQoDgrZynxcsHbZNGiRcnJyeVU5W0tCODli3f3zp078TrWoj/2QQIk4DYCqqgxq9iGAAAQAElEQVRYTk7O9u3bO3XqtG7duuzsbDzsZj3DW1eUQ5+dOnUqODh4+vTpeAOjvrwFW9TxlJx+koBdBCjOysGFV0BKSsqmTZsg0cqpyttaEABwBM927NgRHx8PW4su2QcJkIB7CEgtheHT09NXrVrl7++/e/dunFqixFJSPviQdxcuXBgzZgzOQPEqlreUPVvqh+Uk4LkEKM7KWTt8dUMUx9IPRpTTmLcdIoDXcUREBE40AN+hDtjIeQTYMwk4QgAxM5xjDh069MCBA9aVmWnvEGRJSUlTpkwZNWoUhBouTeuwhAQMRoDirJwFzc/PRxSHv9yhHExa38arfMOGDeIXHWndN/sjARJwHQF810pLSxs2bBikFc4oHfvGBUGGl7CQd9HR0aWlpYycuW4JOZI7CHirODNhjUcdSRRLA6+VyMjIo0eP2vtVT/TD3GECeINv3boVX5fxUkZyuB82JAEScDEB+f6EUVhYeOLEie7du0+YMAGPM96oFXEG+mzevHl9+vTZu3cveq5IV2xLAjonQHF2ZYGgAJDEhTQgEXC4FhMTU8F3iuiWuS0E8EIX1TIzM7dv386vyIIGcxLwFALy/YnI9549e/z8/FasWKH8+z3yGXdgRjjK2Lhxo/jBNUs/B1yR/h1wyXwTlpJAxQhQnKn5KR/sjIwMfO1Drq7Ea6cREG92rAKU8ebNm/H+he200dgxCZCAZgTkowoDTy6eXygzaCmoNOUY4hlXlthl4xxj586dAQEB6N9s/KyC/dvlDCuTgJMIUJypwcoHG9GyxMTE48ePQyWoK/HayQSwCuB/8uTJ2NhYGHI0lEubhgsIcAgSsJ2AfDxzc3MXLlwIZWZ6/gjdZnuHlmpC+SEmFxQUtGbNGqn85OiWWrGcBDyIAMWZxcXCo56QkAB9oBQHorYm7xfRFXMrBNLT0/Fyx8mmlTq8RQIkoB8CeFrj4+PHjRsHZYZjB9NvtnivauIt9NmhQ4d8fHzmz59/6dIldMvXsiZg2YlOCHiJOLODtnzC8/Pz8fCLH5WQhaIjvAiEwdypBHJycvbt24dTDDmKaiFkOQ0SIAG3E4AUw7fZIUOGjLr8Oy9Mv9Zq6yGGO3v2bGBg4MyZM1NTU8VrWeTaDsTeSMD1BCjOrjCXu758tiHODh8+jC+CqCELYTO5gACWA8zx5fj8+fOIn8FGcsG4HIIESMABAlWqVMHTeuzYMRw1zp07V4SyHOjH3ibQfzjfgBacOnWq+BEIvDrs7USL+uyDBDQmQHF2BSj2fqQrF5UqwS4sLIyIiMDDLwtpuIwA+GMs5CkpKdBnMOQ7FzZuMZEACeiHAN6WYWFhOMpcs2YNAt6udAwvBITNJk+ePHbsWATS+MZ2JXyO5TwCFGf/sMX2j4RrPO1IFy9eTExMhIESJrcQwHtWiDMY0gGxRvKShpYE2BcJ2EkAb0iosRUrVvj6+m7ZsqWgoMDODjSoDh+Sk5PnzJkzbNiwqKgovi40YMou3E2A4uyqFcBDjmts/zjNPHLkiPKnnVDO5HoCOB+BSla+beEDFgg5EwmQgIsJKB89vC3xYOIb7JQpU/r06XPo0CHEz1zsjxwOzqSnp4eGhvbs2fPo0aMlJSXiFsqFwZwEPIuAMcVZxdcAL53IyEjkFe+KPVSEAF6y8fHx4q9lyH74wpUoaJCAkwgodZgcQj56uIvXY0xMzMSJE4cPHx4XF4cvtLKauwx8nd66dWu/fv127doFG27AT+RMJOBxBCjOzC8Z3juq8Lj5eix1MgEsBL6a4zux3BWcPCC7JwES+JuApScOcgcJUuzEiROQZVOnTk1LS8Nz+ncbd/8Hn4uLi//888/AwMBNmzbl5+ejBN5q7hc7JAFnE6A4u0IYz/AV6/L/ELDBd0FV4eU7zFxKAEuQkpKSmZkJw6UDczASIIH/EVA+fbARlDpw4IC/v/+iRYvwxel/tSrpRAbhdHXPnj3QZxs2bMjNzYXD8FAnvsETJhKwhQDF2RVK4tEVOR5mRGvy8vJgXLnN/7mJAJYA4iw7OxsGVge5mxwx5LCcFAnYRACPnqwHubN+/frffvsN0icrK0vcErl7H0/hA/yEG9Bnhw8f7t69+/z58zMyMlCChFtMJOApBCjOrlop8QAjT0hIQPDsqnu8cAcBrAW+mmMPwOCw5fsXl0wkQAJOImD2QcMDiG9KS5Ys6datm/z7UiiEDyKHIZLZ5uKWtrlyIJUPOGmNi4sbNGjQ3Llz8WUbl9oOzd5IwKkEDCHOtCaExxgPc2lpqdYdsz9HCOTn5+PLOpfDEXZsQwIOEYDQQVI2xVvx4sWLM2bMCAoKgoFL5V3YVnQS7jopqZxUjYK7qampo0aNmjJlSkxMjKnPqvq8JAH9EKA4u7IWyjcLihCtYeQMHPSQ8IbFwQTFmR7Wgj4YmIDqHai8hKw5f/786NGjJ02aBJWDR9KUg9lC02ouLoFXiJ9BU44dOxaaEpeOOMA2JOByAhRnV5ArH1q8iSDOqAauoHH3/7A0mZmZxcXFwhFcCoM5CZCAhgSUT5ZSmeHRO3XqVK9evWbPno0jBQ1HdGpXcgqYV3JyMg43+/btC2UpX+yyglPdYOck4BgBijPz3KAGINHM32Opawng3ZqVlcVXasWpswcSsJEAHjpRMycnZ+fOnR07dly/fr34eznylqig21zpJ2w4v3r16i5duhw9erSoqAhuoxA5EwnokwDFmZl1wUObn59PcWYGjZuKuBxuAs9hvZcAXoNpaWkrV67s16/fvn37ED/zaBaYTmFh4bZt2wYOHAi5iVeKR0+HzhuegCeKM1csCr5a4WF2xUgcozwCWAhsDFIr47K8FrxPAiRQUQKXLl3CUeDQoUMRasIDWNHu9NEemmz79u1BQUF//PFHXl6ePpyiFyRghgDF2T9QlLs+/zbAP1x0YGFvkKvDnxTRwYLQBaMRUD5W+CKUmZk5bNiwUaNGRUVFGexlWFBQsHfvXl9f382bN8M2t5AsIwH3E6A4+2cN5OsJOkCkf+7RcisBLodb8XNw4xPAIyYmiUODEydO/PLLL5MnT05ISIBQE+VGyvFlLzIy8vfff0doMCUlRc7dSHPkXDydAMXZPysoH1GotGrVqiH/5x4ttxLAclSpws+qnWvA6iRgJwGc9O3YscPHx2fdunWw7WztGdXFix2iMzExcciQITNnzoyPj/cM1+mlNxHghvfPaouHVlxDDQiDuR4IVK9eXbk6enCJPpCAwQjk5OSsXbs2MDBw69atRlVmWDL5JRzGxYsXp0yZghghDNwym0zfPKYlZhuykAQqQsADxFlFpudw25o1a/IJdJietg2xEBBnjJxpS5W9kYCSQH5+fmhoqL+/f3h4uPf8JBb0mfgVtcHBwfJ8E4UgI3KlARvvIuTyFmwmEnASAYozM2DxBNavX79q1apm7rHIHQS4HO6gzjGNSUClLUpLSxMSEkaMGAGBcvr0aYP9+H+5S/jXX3+lpqZCmHbt2jUqKqq4uBjvf7QSOQxlUqFT3qJNAtoSoDi7wlP5KMJu1KgRxdkVNO7+H5ajYcOGPGh29zpwfCMQgLzAAyVnUlRUFBkZCVk2YcKE+Pj4srIyecurDBzjrlmzRvxGN7OBQ3ATQKQhLpmTgJMIUJxdAYtHDunKRaVKEGc4R1O+xeQtGi4mgFWgOLOBOauQQPkE8DSJSjCgzPbt2xcYGDh//vy0tDTlC1DUMXwOCHKO0GebN28OCgoKCwvDIa8sF4asKQ1RzpwEnESA4uwKWDxySOICsuzaa69F5MwL31aCgK5yxMwgzrAcuvKKzpCA5xLAuw7nd3/++eegQYPWrl2bnZ3tuXOpiOeqNzxiZlBmAQEBf/zxB5RrRXpmWxKoIAH9ibMKTsjR5nhKkURrvLmuv/56aAJxydy9BKDM6tWrh0WRC+Refzg6CXg0ATxHubm5S5cuxSne7t27CwsLPXo6DjiPl4loJQ1xiRya7MCBAz4+PitWrAAllDCRgFsIUJz9g10+qIic3XTTTTVr1vznHi33EUAUs379+nJ13OcIRyYBzyaAh6isrCw+Pn7ChAn9+/c/cuQI4meePSUHvK9UCfIU7UBDGLCVqbS09OTJk9Bns2bNkqe9liorG9ImAQ0JUJyZgYnnsEGDBo0bN4ZhettsoWk1lmhCAKeZTZo0wXIAO5ImfbITEvBOAiUlJefPnx89evSoUaMuXrwIFeKdHMSszSoz3MJ7BhI2JiZmzJgx06ZNS0xMRE0klOOuKslCaagq8JIEHCNAcabmhocQCaV33nknQmgwVEncVRXy0kkE8Mpr3rw5hLLsn/wFCuYkUC4B+bDgOUKQ7MSJE0OHDp05c2Zqaqq8VW4n3lZBkIE+u3DhwqRJkyBkreASlYFIGrCZSKDiBCjO1AzxFkOCLLv33nsRtlHf5rVzCIC5qmOUIGEhIM4aNWoEGxWQI8FgIgESKJeAfFiKiorCw8MHDRq0ePFir/3x/3JxqSpAbyFsFhISMnjw4Li4OMg1VJBIYTORgPMIuF2cOW9qjveMZxKyrGXLlsgd74UtK0YAq4BUr169G264oUaNGqIzlAiDOQmQgI0EoMZWrlzZrVu3TZs25eTk2NiK1UAAL5yMjIzZs2f369fv+PHjhYWFKEE5Ewk4mwDFmXnCCNggcla/fn3zt1mqNQGzrzx8SW3SpMmtt96K5dB6QPZHAsYngMcKR3KhoaH9+/c/evQo4mfGn7N6hhpcZ2VlQd36+fnt2bOnoKBAgx7ZBQmUR4DizDwhyIIGDRrccccdMMzXYKnzCQB+06ZNb7vtNooz58PmCEYjgGO4ixcvTp06NSgo6Pz587g02gydOR+8fJTd5+fnI+4IkmFhYdC4qrsQwcrKtEmg4gQoziwyrFWrVqtWrapXr26xBm84mQCOla+//voWLVqoXoVOHlaX3dMpErCZAJ4XSLHTp0+PGDFi0qRJiYl//31Dm1uz4t8ETPUWzjR37doFfWb6K2oB/O82/I8EtCNAcXYVS+UzVrdu3ccee4zi7CpArr2oXbs29DFy5bq41gWORgKeR6C4uPjIkSM4ypw/f35ycrKpzvC8KbnDY9PXDsAeOHDA19d30aJF4qf3RB0Sdsf6GHxMV4szneMUz5jIq1WrdvvttzNs4/olE+875A0bNnzqqadwpilWxPWecEQS8DgCEA04evvll1/Wr1+flZXFZ8fhFTSLDvrs6NGj/v7+s2bNSklJQYQS/eNlhVyV0BxJVchLErCRAMWZGVDiSUOOM7UHHngAh2uohEvkTC4gIN5oAH7dddfde++9EGcYFJfImUiABCwRwIOTmpq6bNmyXr16IXIGGWGppoHLXTO18+fP48h4ypQp8p8QMB0XrywkLIrpLZaQQLkEKM7+QYQH6Z+LSpVw2axZswcffLBWrVqw+YxVcu0faOKnn366QYMGYljJH2shSpiTAAlIAnhAEhISQkJC7CbJXQAAEABJREFUhgwZcuLECVzKWzQ0JwC8oD1p0qSxY8fGxcUp/60F1QtKdam5J+zQqAQozv5ZWTxv/1xctiDLEDm74YYbLl8xczoB5YusRo0ar732munP/Jkuk9PdcsMAHJIEyicgnwUYiJmNu/zn7NmzOGtDSfntWaMCBEAYx5rTp08fPnx4TEyM1Gcor0CvbEoCVwhQnF0BYfZ/CN489NBDOFmDgQpK6YBLJs0JyPcajjIhi5FgaD4KOyQBYxDAGwmPTFFR0cmTJzt27Dhx4kSEc6DMjDE7j5gFNDGilf369Tt06FBJSQlWxCPcppP6J+BkcaZ/ACYeKp8u2DjZfOyxx+rVq4eKeA8iZ3IBAYTNXn31VYFdNRwWRVXCSxLwQgJ4HeFZyMvL27FjR8+ePTdu3Jifn++FHNw+ZSzB2rVr/f399+3bZ6rPsExu95AOeCIBijP1qimfJdjVqlX797//fd111+E9qK7Ka+cQAOrmzZs/88wzNWvWVI2AW1gUVSEvScALCeBZyMzMXLNmTUBAQFhYmJf+5np9LHxhYeHWrVuxENu2bUMgU+kUlkl5SZsEbCRAcWYelFQAOFa75557Hn30UXGyab42S7UjgHcZBPHTTz99++23A76qY6wLKqgKeUkCXkgAamzu3LlBQUH79++HOPBCArqaMjTZzp07AwMDN2zYwBCmrpbGQ52hODO/cEoFUKdOnY8//hi5+aos1ZQA5FeTJk0QrUTwTLkKchBUkLZhDE6EBKwQUD0IpaWlycnJgwcPhjKLiorir8ywgs6VtyCRcbLp4+OzbNkyBDVdOTTHMh4BirPy1xSBHByxPfHEEzDKr80aFSMAyIhTtm7dGqFK6rCKsWRrgxAQDwIkGgxIsYiIiIEDB06aNCnF6i9BNcjkPWoaWJ2TJ08OGDBgzpw5aWlpqr+cgRX0qNnQWXcS0FacuXMmzhsbL8QaNWq0a9dO/Hw6HzDnoUbPDRs2/Ne//nXLLbfgTJOoAYSJBEAAzwJeRIjN7Nq1KyAgYNGiRenp6SgXCbeEwdztBCDIEhIShg4dOnPmTBi4lC5xmSQKGuUSoDgrF9HfFRDOefLJJx977DEYf1/zP+cQgCC78847X3nlFdO/CuCcAdkrCXgAAanMtm3bNmjQoA0bNmRnZ3uA39q76Bk9QpAlJSVNmDBh4sSJ58+fxyX8xiIiZyIBGwlQnNkECs9VixYt3n333UaNGvHbj03IHKpUq1attm3b3n777Q61ZiMS8GwCeM+ICUhDXOKdk5+fv2rVqv79++/bt6+goECUM9cnAbF8CJsheDZ8+PCzZ89iBUWCw+IuDCYSsEKA4swKnKtuIZbzwgsvPPfcczjivOoGLzQigLDZvffe+8knnwC1Rl3qtRv6RQLmCGD/FsXCELt4aWlpbGzsqFGjevfuHRERUVxcLOqoclFZVchLtxAQy4c8LS1t3rx5PXv2jIyMxDqKNUK5W7zioJ5FgOLM1vWCdLj11lvffPNN/s4zW5HZWQ9RyW+//bZx48Z2tmN1EjAaAbF/4zgMO3pUVNTIkSNxRhYXF4cSS1MVTSzdZbm7CCDMuXnz5gEDBiDkWVRU5C43OK7HEaiQOPO42VbEYbz7qlev/u9///tf//oXg2cVIWm2bbVq1Z5//vmXXnoJIthsBRaSgDcQEMEVPAUwSkpKECoLCAiYPXt2SkoKXkHeQMB4c4Qm27Jli7+//9atW3E8bbwJckbOIEBxVj5V5TsRYbMvv/zy2muvRTO8PZEzVZwASLZo0eKDDz4AXtgV75A9kIBuCchPuPLFIr0VhchxfLlnzx4fH5+1a9d67Y//SyyebkCT7dy5MygoCCoNttnpYNHNlrPQOwlQnJW/7vJliqpVq1Z9/PHHoc/q1q3LZwlANEn169d/9913ETkTP21GsJpQZSc6JICXifx4wxYeSkNcokJWVtayZct69OiBEzFLe7mozNxTCBQWFh44cKBbt25LlizB+mKVxbrDEFMQl8JmTgIUZ3Z/BmrVqvX5558/88wzOIlTNebTpQJiyyUOi6F3P/rooyZNmoj6hsMopsWcBCqZ3YlloQCEE8xZs2b5+voeO3YM8TNRyNwABHBOHRMTg2jo/Pnzk5OTxU8Qmr7uTEsMMHdOwV4CFGf2EquEJ6d58+ZffPHFbbfdBlvZXvWSVd6ibYlA06ZNIXYfeOABRCUt1WE5CRibgHiTYLe+cOHCxIkThw0bdu7cudLSUmPP2gtnhz0iISFh5MiR06dPx1pjxU0hoI5pIUu8jYA94szb2FieL07fXnjhhQ8++IB/tdAyJJvugGTbtm3btGmD+Jl8JYmNyqb2rEQCnklAftqF+7iEFDt58uTw4cOnTp2K4BlKxC3mBiOAlYUswypPmDAhPj4elwabIKejCQGKMwcxXnPNNZ9++qn8MSkHe/HuZjgXbt26dYcOHVQal28r7/5ceNfsxae9qKjo8OHDAwcODA0NTU1NFYUqEMb/0qKasKEvET8LCQkZMGBAYmIidLmh58rJOUKA4swRamhTpUqV22+/vWPHjg899BDP4wDE9iT2GEDDUWbPnj1btGhhe1vWJAGDEcDjkJubu3HjRrxM1q5dm5WVZTpB1EGhWcWGciaPIyCWMiMjY8mSJV26dDl+/DjUuZyFWG55ScM7CVCcOb7u0GePP/74L7/8cv311/Nxsp0jXkzABU327bffPvbYY1BpuLS9uf5r0kMSsIUAPvZ4FtLS0pYuXdq/f/9jx46ZRlBQB12hGnIm4xGAJoMuR8R079698q/lcrmNt9AOzIjizAFo/zSpXr36a6+99vXXXzfm77X/h0r5FnB98MEHb775Zv369cuvzRokYBQCQmyJ2ZSVlcXHx0+fPn3w4MEnT56EMjPdlU1LRFvmhiGQl5e3bdu2oKCgHTt2FBYWGmZenEgFCVgRZxXs2Vua161b97///W+7du3q1avnLXOu2Dxr1qz5yiuvtG/fnhHHioFka08iIGSZFFtQZnFxcWPHjp0wYcK5c+c8aSb0VWsCiJn9+eefPj4+W7ZssaLPxEdI68HZn04JUJxVdGHwwNx0000///zzhx9+2KBBg4p2Z/T2tWrVev755wMDA2+88Uajz5Xz82oCeDNg/iKHIWUZbBxmRURE/Prrr1OmTElMTIRQQ6H3Jc74HwL4SBw9ehQfidDQ0PT0dHxaqlRR784o/KcBLaMTUC+/0eer2fzkOxc94im65ZZbfvzxRxxxQnwob+EukyQAOFBm+ILYtGlTUpJYaBiSgNhKRa6cYHZ2dlhYWLdu3TZv3owjLeUt2t5JQLwModERTMUZ9+zZs5OSknApyr2TCWdNcebgZ0D1zq1ateoDDzzw+++/v/DCC9WrV1d16rXPmHLiUGbPPfdc586dAQpyVoXIgy/pOgnYTABBkdWrV/v7++/evZu//d9mbAavKHYTvC1hxMTETJw4UYRUcSlnjrvSpuENBCjONFtloc/whRjBoRo1aij7VT5jynLD23LiEKytW7fu0qXLk08+qYJjeAicoBcSkJ985dwvXbqEoEhwcPCBAwdwjKW8RZsExGcGATPos2nTpuFzAikvsYi78pKG4Qn8I84MP1UXTLBatWqPP/54//7933rrrTp16rhgRI8YombNmlBmAQEBTz/9NGyP8JlOkkBFCKjiHKWlpampqSNHjhw6dGhUVBQuK9I52xqbAHRYcnLyvHnzevXqdebMGURYVR8nY0+fsxMEKM4Eh4rmeJxEFwgLPfLIIz169Gjbtm2jRo1Eodc+Wph4gwYN2rRpM3r06IceeghwBBBVLumpynlJAgYggCBZREQENlocV0GiYUbe+YHHxJlsJ5Cdnb1kyZJ+/fodPny4oKDA9oasaQwCFGfarCNUiOwI55v3339/9+7dP/30U+gz3LL0LsYt2cp4BmbXpEkTiFS8X+666y5gsTRH1LR0i+Uk4NEE8vPzd+3a5e/vv3LlypycHI+eC513MQHxT0cEBgbiI2RFn/H96eJ1cc1wFGdO4Qwhcvvtt//2228//fTTDTfcYOnn3y2JNqf45NpO8b5o1qzZN99806VLF0hVHPi6dnznjcaeSeAqAuIpFrnyBh4BbKjr16/38/PbtGkTAiHKu7RJwBYCeXl5W7duDQgI2LlzJ0KwyibyIycN5V3ank6A4sxZK4hX84033ghxhrgR1El1k7/C6ayBddAvtGnz5s0x8Q4dOkCkUpnpYE3ogrMI4ElH1yKHIRNiZoiW+fj4hIeHw5blNEjARgL4UCEVFhbiI4QP0rp165QfJNyysR9W8ygCV5ylOLsCQvP/IVqGh+faa69t167diBEjXn/99YYNG6JE84H00KGcF4wGDRq88MILM2bMwKkugmfgwC92elgj+uAyAqWlpbGxsYMHD+7Ro0d0dHRJSYnLhuZARiKANycSZlRcXHzkyBF83Z07d256erooRDmTgQlQnDlrceXzU7NmzaeeegpvapzxIYyEqJIcElJG2h5qiCmIyWJqN99882effYYg/DPPPFOrVi1MStyCgSQqw2AiAaMSgBQ7deoUvo9NmzYtOTlZ+fk36pTNz4ulmhKA4j979iw+V9OnT8fnqqysTNPu2ZnuCFCcuWJJoFpatGjRuXPnXr16Pf/88/Jf4TTAi1tOARq0devWffr06dKlS8uWLc0eZcrKroDOMUjA5QSgzA4dOhQYGDh//vzU1FR+4F2+AsYcUHythSCLiYmZcPlPRkYGP13GXOz/zYri7H8knPx/PF1NmjR57733goKCOnTocN1110GxOXlMp3ePSWEMTKRp06aff/459qQPP/zw+uuvx1Emyk2TqG9arucS+kYCNhIoKiravXu3j4/P2rVruXfaCI3VbCEgdRj0WUJCAoJnQ4cOFf/Eky3NWccTCVCcuXTV6tSp88ADDyCEhiOPl19+GZrGc/+iAJQWRBgUJyYyfvx4X1/fxx57TBxlqpjKN4s0VBV4SQIeTQAf7MzMzMWLFyNsvHPnzvz8fI+eDp3XMwF82BCUnTlzJr4G4AC9uLgYr2I9O0zfrBOwdJfizBIZ7cvFIwRBI35kHsFpPF0vvvjitddei+CT9uM5s0c43KhRI5xjdu/eHRN59dVXGzdujEIxJl4fwhC5mLiwmZOAkQjgs41Pe3x8PIIZ/v7+ERER2CyNNEHORZ8EEJrFlwE/P7/9+/cXFhYKJ/FpFAZzAxCgOHPdIuIlLgeDjmnevPl///tfHAVC3zz11FP169dHoazg4sfM9uGEuHz66ac7deqE0Pr333+Piah+wsz23uR8aZCAJxIovfwXM0ePHj1mzJjz58/j1MkTZ6GFz+zD1QTy8vJwgB4UFLRnzx58JcBbV7nFuNobjqc1AYozrYna01+NGjXuu+++7777Ljg4GFG0F154AeEoIdFc/JiphsNzrpoHSiDLateu/cgjj0BN4o3w008/PfTQQ0Jq8dQAABAASURBVDjHVLVVNeQlCRiAAD7/ylmIz3xJSUlkZCQe3lmzZiUlJYlCVU1lK9okoC0BxMy2bdsWEBCwdetW6DNtO2dv7iVAceYi/pZe2SiHvoHi+fLLL3E+OHLkyP/85z9NmjRBIcQQ7jrVP0v9i20GQ6MC3IAzOHuFdhwyZMjUqVMRLXv44YdxOItbog5yZUIr5aUn2fSVBMwRkE+EuIlPeFFRUXh4+IABAxYuXJiVlSUrSEPUZE4CGhLAB0/VGzQZImc431y5ciViaaq7vPRcAhRnLlo78coWuRxSXuKRq1Onzk033dS2bds5c+YsXrz4559/fuaZZ1q0aFGzZk3E0lBBttLKQJ/SAdEnSqSBQREnu/766x999NGvv/567ty5oaGhX3zxxd13340TWCHLRGVlLjoUubKcNgkYiUBOTs6qVau6d+++ceNG2EaaGueiZwLKV6t8XeN7wqFDh/A9AXtHWlqaso6e5+Klvtk8bYozm1FpUVE8TiJHf9KAjYTLatWqQfo88cQT/fr1Q4xq0KBB33zzzfPPPw+VBvWGu6iDmpoks88whkCcDDIRcbKvvvoKh61TpkzB1zIoxfr16+Ou0gHYqk5Qoolv7IQE9EkAH/hLly4tWLDA19f3yJEjONnUp5/0yvAE8FGUcywtLT137hxONmbOnMl/QkBi8WiD4swNy6d8qOTwykLEpRAwgyB777338H0oMDBw8ODBvXv3fv/991u2bNmoUSPcRWQL1WRzhw10AslVo0YNaC90jiF69uyJEZEgED/66COEyhBCQzXTIeCzUGMix6VpHZaQgGEIlJWVxcbGTp48Gc/j2bNnsSOKT75hJmj7RFhTbwTw4YyPjx8/fjw+n4mJiXwb622B7PWH4sxeYs6qb/qWR0n16tUbNGgAzfTGG2+0b9/e398f4bSQkBCEsnDCiADbddddV7duXYgnyDUILNSH0hK6DXIKCZ0gR0IhbqECqqEywmNo2KxZM3TSrl07SMB58+ZNmzYNQ3To0OHtt99+4IEHoAJRGT2o5iwfe2ngvYBqSKqavCQBwxCAFDtz5syIESMmTZoEiYbPPKYmHwHYTCTgXgL4NEKW4fM5ZsyYixcvio+oe13i6A4ToDhzGJ1zG+IxkwNAWkFXQUvhtBGa6cUXX/zuu+/w3X358uXh4eE7duwIDQ0dOnRo165dv/3227Zt27788stPP/1069atH3rooVatWj355JM4lPzPf/6DONzXX3/dpUsXtJ0zZ87WrVsPHjyITkaOHPnTTz+h2/vvvx9D1KtXDxoOg0oHVIYUYUpD6bCqvo4v6RoJlENAfMhxfHn48OFevXop/2JmOS15mwRcTgDv4aSkJHzNHjhw4PHjx/G5FR9gOCIN2Ez6J0Bxpv81uspDaCYINYS+oNUaNmzYtGnTe++9F8Lryy+/7N69O84iJ06ciBjYypUr16xZs3nz5j/++GP16tUrVqyAgEO4Ozg4uEePHpBor776KnTeNddcg07QFQJpCK2h86sG4wUJeCUB5TaG3S4vLw9fgfDlZ9OmTfzt/175ifCkSePTm52dvWTJEh8fn0OHDgl9hkJ8kj1pGgbx1fFpUJw5zk4/LaGroNhwBAnRBpmFU06Z6tSpI23cQgVUQ2U0weOqnynQExLQDwG5jcFIT09HdBnn/gcOHCguLtaPk/SEBMwSwIcW5YWFhVu2bMHX9Z07d8JGIRLKmTyFAMWZp6yUE/2kSnMiXHbtaQTkHgYjOTl5zpw5Q4YMwZkmIhCeNhXt/GVPHkigqKho27Zt0GdQaQUFBXzPe9YaUpx51npd8dbSY4bt5EoNe/7nWCt7RmBdEvAYAuLhKisrgzIbOXLk0KFDT58+TWXmMetHRxUEoMn27NmDuO+qVatw1slXvYKN3k2KM72vkKl/eMCQTMtRIvYVGGaT2buWujLbg6cX0n8SsIUAQg4RERE9e/acPHlySkoKhJotrViHBHRIAB/mEydO9OnTZ+HChRkZGXzh63CNzLpEcWYWi64LzWosWzw2+1g63JstI7IOCXgcgfz8/F27dvn6+iLYAFv4j8cESdjMScCzCODbRVxcHM43cUafmMhfgebE1dOwa4ozDWG6oisrO4RZ7WW20BWOcgwS8EACOTk569at8/f337JlS15enpwBniMkeUmDBDyLAD69CQkJY8eOnTp1akxMjGc5753eUpx52LrjGbPksVndZrbQUg8sJwFvJgA1tnjxYsTM9u7dK2NmXgmEkzYgAewdsbGx06ZNGz169Pnz5xFOMztJbhlmsbi+kOLM9cw5IgmQgPsJYK+STmCjwrnPyJEje/fuHR0dzR//l2RoGIkAPvPJyckzZ87s1avX2bNnzX7OUcdIU/bcuVCcee7a0fPyCPA+CVwmYDYYIAuLi4sjIyOHDBkyYcIE/sT0ZWDMjEygoKBg/fr1/fr1O3jwYFFRkWqqQpzJp0N1l5cuI0Bx5jLUHIgESMA9BMR+I3Lhgdx7sDnt27cvMDBwwYIFaWlpslxUY04ChiRQWFi4adMmfOzDwsKg1ZRzFI+A8mFR3qV9FQFnXlCcOZMu+yYBEtAHAWw2YtcR7uASBmJmu3fv7t+//7p16zIzM1EiymGIpGwiSpiTgMcRMPsxzsvL2759O/TZtm3bVPrM4yZoSIcpzgy5rJwUCZDAVQTE/iS1V1lZGU4wly5d2rVr1/DwcEs//i/rX9WX4S44IWMTsPQxhiZD2Lh79+6rV6/OycmxVM3YcHQ7O4oz3S4NHSMBEtCYACQadiAos4SEhKlTp/r6+kZGRpr9sWjU1HhsdkcC+iCAzzaS8AUf/jNnzohfUZuamoqnQ5SLXFzKyqKQuWsIUJy5hjNHcQEBDkEC5RPAfnP+/PkxY8ZMmDAhJiYGQs1sG1QzW85CEvBoAlBa+GwjYRawkcOOjY0dOnTojBkzLly4gEsUiiQriEvmriRAceZK2hxLvwSwSeNLpPRPvJXkJQ2dE7BxvbDEUVFRfn5+s2fPNv1V6TZ2onMUdI8ErBBQai9pw4AsQyx5ypQpeC6sNPfuWy6dPcWZS3FzMH0SKCgoOHr06J9//pmfn4/3FJwUOQwmjyAg1kvkwmGptKSBVd6zZ0/v3r1XrlyZnp6urCyamJaIcuYkYDAC8qGQ88K307i4uJkzZ+Kry6VLl6w8C1Zuyd5oVJwAxVnFGbIHjyGgeiXhLYNXUmpq6uLFiz/++OMff/xx9OjRFy9eLC0tVU0JNVUlvNQhAeX6iiWTJZmZmatWrerZs+cff/wBCa5D513nEkfyegLi6VBhQCFk2fz583///feIiIji4mJVBXFZpQplgyDh3JyUncuXveuKAN4+Sn+gzM6cOTNp0iRfX19oMgT2x44dO2zYsMjISOgzua+jidLGJZOnEMCKY5URJ8M5pr+//5EjR7DloNBT/KefJOBiAggwr127duDAgeHh4YWFhaaj4/Hh+9AUi+YlFGeaI2WHLiLg8DB4uaBtUVERtuqhQ4dOnjw5Pj4ehUhpaWlz584NCAjYsWMHKqAENZk8lAC2ECgzLO6ECRNGjhwZHR0Nze2hc6HbJOAyArm5uQgwBwcH79y5E1pNOS6eKVzixSgM2ExOIkBx5iSw7Fa/BPBawTfCPXv24JBr6dKlKSkpyndNXl7e+vXrBw0ahFMwvKRwS78zoWdXE1AtVklJCSKj0N8IjiYkJECoXV2dVyRAAuYJ4DUYFhY2YMCAP//8E29LWUk+YtKQt4xnuHdGFGfu5c/R3UAgNTV14cKFHTp0gD7DO0h4oHzX4MsiQvq9evVCxCUuLg6bOvScqMZctwSwRkjSPewoe/fu7devX0hIiNDf8payGgpVlyhhIgHDEyj3Y4+jA5wt/P777/gGm5GRoXxDGh6OHiZIcaaHVaAPLiJQXFyMs60xY8YMHDjw3LlziKxYeuPg/Cs2Nnb45T+nTp1CTbhoqTJuMbmdgHJ1oLlxLgN5vW7dOtMf/1fWhNuqS5QYK3E2JGCGgPJjb0mo4TV49uzZgICAOXPm4DutsomZHlmkKQGKM01xsjMdELDyojl8+HBQUNC0adPiL/+QmXVn8SbKzMycPXs2muzatQvhNEs9W++HdzUnYGUhsGr4lr98+XJfX99Dhw5Bjms+OjskAYMRwFNjaUY4Nzhz5gzOEPDaTE5OtlTNyiNpqQnLrROgOLPOh3d1Q8BmR8y+aHDI9eeff/bp0wfb9iWrv8VHNU5ubu7atWv9/PyQZ2dnq+7y0u0ElLsClj4pKWnGjBmDBw+OjDT/7zK53WE6QAIeRyAmJmby5MkjRoxIT0/HU2bqv9lC02ossZ0AxZntrFjTIwngrYEXyrx587p166b8ITPbJwN9hob9+vWbPn26MravlAW298aaFSGA1URzkcNAkja+4uOoGvvHqFGjcHgtTqJRgYkESKCCBPBw4WtPSEiIj49PbGwsjjuVHarehKpLZU1d2zpzjuJMZwtCd7QjgG0bO/Tp06eHDx8+aNCg48eP49Kx7nE6dv78eX9//4CAAHQo3k3o37He2MphAuK9jxxJ2QkWCKGyvn37Tp06FYcv2EuUd2mTAAlUkABedxkZGfPnz8dTduTIEZxFyA5xS9owVJcoYXKAAMWZA9DYxDMIQIodOnQoKCgIGza+9jn2ypAiAM1zcnLmzp3r6+uLE9K8vDxBAeXCYO4yAmCOJIfLz8/fsWMHQps4eoYty73T4KxJwHkEcIywZs2a4ODgcMWvqJUvSeeN64U9U5x54aJ7xZTxxW7z5s2IdS1fvjwzM1O5l9s1f1XD7OzsdevWDRw4cNWqVbDRFV9MgODipGSOxcVaYKG3bdtWVFTkYk84HAl4FQG8D/H9Z+PGjThD2L17t3jiUOhVEFwzWYoz13DmKPYScLw+3hQIv4eGhuIoExt2QUEB+pLbuTRQaGNSNUGH+NaIzqdPn473lI2dsJpWBLAcWGL0hhzKbOHChdgnDhw4gHVBIRIqIGciARJwBgE8d/jqu2vXrgEDBuALMGxnjMI+Kc74GTAUgdLS0jNnzgwZMqR///5Hjx4VX+wwQ7xQkGPbFgZs6wk1ZQXTJjgwPXfuHA5Me/bsGRUVVWzhXwiWPdDQkIBYjrKystjY2FGjRmGhT58+LRcaCycqYETYyJlIgAQ0J4CX3sGDB/v06YOvwfiOJPuXT58s0auhd78ozvS+QvTPdgLYoQ8fPow4yuTJk1NSUrB/q9ra/uIotyYq4JWEFxO+Pu7cuTMnJ0c1Fi8rSMCstBKF2BhOnDgxePDgCRMmYBWwFnIsS7asQIMESEATAvgmjO9FQ4cOnT17Nt63ePTweCKhc2WOSyYHCFCcOQCNTfRIAPJo06ZNAwcOXL58eW5urmtczM7OXr9+vZ+f37Jly+SxmtmhxdvK7C0WmhLAix5Jlkt6KMQxSnh4eGBg4KJFi6DMZB0vNThtEnAfAXwBxhlMWpkNAAAQAElEQVTCmDFjpkyZcunSJVwKX/CcwhA5DCYHCFCcOQCNTdxAQG7PpmPjFYD3ArZqiKSwsDDrIsm0uWMl0h+E6/bu3RscHIzXE7QCnDHboaVys5VZKPEKFJIeaG/duhXRyo0bN2ZlZYm7zEmABNxF4K+//oqLi8NhxejRoxMTExFOk56onmJZTsMWAhRntlBiHacTsDIAHn7cxXcys486yi9evDhixIiBAwceP34cYRVUdkESXmEgGPABXx+HDRvm6+uLOD8EBMqZNCEAvKIfGNC+S5cu7dy5MyJn8leZiLvMSYAE3EIADyZegDjWnDZtWsDlXwNZ/L+fwcUtt7hkjEEpzoyxjkaeBTSZeMhFLqeKS0ixI0eO9OvXb/z48UlJScovbbKaaww4k5ycHBIS0rdv3x07dphG7zAL4QlqCoO5LQQEN7z9xbfz/v37x8TElJSU2NKWdUiABFxDAK81HF+EhoYGBgYe0uW/aesaDhqOQnGmIUx25RQC2J5FUvWOUy2cbUGZrV69Wie/0gLhnA0bNiB+tmLFipzLf0UA7yzhNgzMArbIYTDZQgC4oLmjo6NHjRo1YcIESDSQtKUh65AACbiYQG5u7qpVq6DP9u7di29QeHjhgMhh8MkFBNsTxZntrFjTPQTMPtJpaWkLFizw9/ffuXOnTpSZoIOQ/uHDh/F6mj59OmJpolDkZicibjG3RACv+FOnTvn5+c2bNw/BUa9naIkTy0lAFwRwaLB169bg4OCwsDC8DOGTfGalSkMhU7kEKM7KRcQKuiAgn3CccCF+PmzYsMGDBx8/flyHP+AFPYFIz8iRI4cMGQIDl7og6IFO4Ng6PDy8e/fua9asSU9Pl58BMRW+6wUH5iSgKwJ4J+M786BBg9atW6erb866olSuMxRn5SJiBScQsNClavdV1hI7MR71Q4cOderUafLkyfHx8RBqoo64K2w35tINOJaYmDht2rQuXbrs2rULIsOsV7K+2bveU2jKAZ8EqLFly5b9/vvv+AqOdTdbx3sQcaYk4EEE8Mbbv39/3759Q0ND8SCb9dz0iTZbzWsLKc68dul1N3Hsx9Yf18zMTPFDZmvXrs3Ly5MTQCu0lZduNFRuiAh/jx494HBGRobqLvw0LUGhFyYVB1ympKSEhITgdPjEiRMi9IhCLyTDKZOAhxIoLS09c+ZMUFDQ/PnzL126hOcXL2rlXFCCS+RIMDROnt8dxZnnr6FRZiAfXWkoZ5aVlSV26z///BOiR3lLV8+2ynm8oY4dO4YI/6xZs+Li4hBRkxVM3Za3lLPzNhuIkpKSRo8ePWbMGLzcAdDbCHC+JODpBMSrDM9ybGzs8OHDcYaAkwRcms4LNZFMy1lCccbPgL4IQLIgKX3CI43detiwYaNHj4bQET9kqqwAWz+PN5xXOQP/T58+Defxkjp37hzUBuqofBYlIsctL0xi7giSRUdH+/v7z5w5MyEhAei8EIVyyrRJwBMJiMcZnsPAgzxx4sQJEyZAqPGJBhMbE8WZjaBYzUUEVMomPz//wIEDXbt2nTx5Mh5yPOrSD2VNZbms4C4Dzih9gxsQZPjiOHv27F9//RXTKSwsRKEyqeorb3mJDQIIiO7evbtXr16hoaHiHMRL5s5pkoBRCeC5xvsQr+4pU6YEBARERETgCxgKMV+Rw2AyS4DizCwWFmpLoPzeVA8qnme0yc7OXrdunfhNZpmZmcpvXagv6sBATb0lU99QkpubGxYW1rFjxzVr1qSlpaFEb2673h+5fHl5eVjrAQMGbN68GaBc7wlHJAEScB4BvMDxpUv8Oy74sooHny9A67Qpzqzz4V0XEZAPqjQQOwkJCcGXLbN/21FWk4aLHLVnGFPf8K0R3x39/PxwbIcgPyrgJWVPl0arCwKYEl7cixYtGjRo0L59+8weW6MOEwmQgMcREA+4cLuoqGjTpk2BgYEIkMMWhRq9AEVnhsopzgy1nAaYDJ5VfK+6cOHC6NGjR40adfLkSQgaA8xLTgHTOX369Pjx44cOHXr27FlMVt7yQgPR0KSkpGnTpoFGVFSUl9Pwwg8Ap+wlBPBih1ArLCxEaBxfuXGGABtzRyFyJlMCFGemTFjiUgLy4RQGntijR48i+j1lyhTx1xtd6o1LBoMiSUxMnD9//m+//Xb8+PGCggLVsHiRqUoMeQmdeubMGciyMWPGnDt3DlgMOU07JsWqJGBQAuL1jsnl5+fjMGTAgAEbNmzIzc31kncdJm5vojizlxjrV5SA6mlUXubk5Kxdu/b3339fsmRJenq6fJ4rOqT+2mNqmOz27du///77FStWpF39I2i4q3RZdam85bk2ji8PHDjg4+Mzffp0BM+ozDx3Kek5CdhFAN/ADx061KNHj6VLl2ZkZNjV1nsqU5x5z1q7bqbWRzIrNbA3i2BS//79sWfLn0iw3pWn30XoKDIyUvzmCPEPHiilqpyd2UJ5V/+G6Yrj2zPONaDM1qxZA1v/U6CHJEACGhLAO+HChQs438QbAN/TNOzZMF1RnBlmKT14IqWlpWfPnp0wYcLgwYNxvIVLD56Mna5Dn2Hu48ePx9xh4NLODnRdHa9g+FelShWlvszKylq5cuWgQYNwuiFUuPIu6jORAAkYngBeDgkJCTt27HDghW94OJggxRkgMLmTAJ7MEydOIHo0Y8YMET1ypzfuGFtEDUNDQ3v37n348GGhV+CIlCx4i+HS4xLcFlOAgQT/kaemps6dOxffmHGuwW/MYMJEAt5MQL7uvBmC2blTnJnFwkKnE8C2ja06Ozt7w4YN7du3X7ZsmernrpzugZ4GkCh+/vnnxYsXp6enQ7GhUPgIVsLwoBzOq9zGjC5evIgAIWJm0dHRSmWGyh40Ne1cZU8k4O0E8FrwdgQW5k9xZgEMi51MAAGzxMTEBQsWdO/e/dixY/z+BN7QK8ePH0cQccqUKbGxsR792lIpM0wN8dEhQ4ZMmzYtIyODagzLzUQC3kxAvCJE7s0cLM2d4swSGZbbTMD+ilBmiJ2MHz8eu/X58+c9WoXYP3trLYACQMaOHTts2LDTp0+XlJR44ssL2kvpdkFBwa5du3CUuXDhQv74v7Xl5z0S8BoCeEt4zVwdmSjFmSPU2MZeAuI5FBs2BMfRo0flb8mHHLG3N8PXxwnv/PnzfXx89uzZo+eYolhW0+XAQstbeXl5f/zxB8KBGzduxCm2aWWWkAAJkIA1Al55j+LMK5fd5ZPGbo0xocOwPYeFhXXo0GHVqlWQIHILx10mQQBMkHJycjZs2NCrV6/ly5fr9hxQLKtwW+SqEvHvMuHkGioTMTPVXdGEOQmQAAmQgIoAxZkKCC+dRQDKLD4+fu7cub/++uuxY8cKCwudNZJR+sVp4KFDh/r06TN58uS4uDgotipVrnpg9aN14BuoI8cqw0CCERMTA88HDBiAg1qES1GICsi9NnHiJEACJGAjgave9Ta2YTUSsJcA9uaoqKhx48YNHz78HP+hHpvxQeJAlo0cOXLUqFHHjx8vLi5WCjK9aR34hoTJlZaWnjx5Ej6PHz8+JSVFb37CQyYSIAES0DMBijM9r44+fbPJK7FJoyo2Ziizo0ePDho0aNasWZAaEBwoZ7KRAADiWDMkJCQwMHDXrl0Ip9nY0JXV5HJjULHc8DY0NDQ5ORn+o5CJBEiABEjAdgIUZ7azYk07CGBLRkIDiImwsLAePXqsW7cuPT1dFKKcyS4C2dnZGzZs6Nu3LzDm5OQAo+qI067etK0MZ2SHOK0+ePBg586d165dC02pvCXr0CABEiABywR4528CFGd/U+B/mhNAKAURssTExClTpnTq1GnPnj1QaXIU3IUtchhM1gkIUPn5+QcOHPj1118nTJgQHx+Po0PrrVx2V7gHHQbxvXjx4vbt2+/fvx/euswBDkQCJEACBiNAcWawBdXLdHC2FRUVNfLyn3PnzkFJiC1c+IeNHIbIYTBZJyBBQe+mpKQMHz586NChJ06cKC4utt7QZXfhYUJCwsyZM4OCgk6fPg0/XTa0fgeiZyRAAiTgKAGKM0fJeX07pdhS2gBTVFR0+PBhf39/7NZJSUnYuVEochhMFSSQmZkZGhoKvLt27crLy7PSm5K5ao2stLL3FqRYbGzs6NGjx48ff+bMGVwqx7W3N9YnARIgARKgOONnoBwClm6LDVhs+cIWNXF8uWnTpgEDBqxZsyYrK0t5S1RgXnEC0GcbN27s16/f6tWrVfpMAEeOJFZHDIdLYWibIyZ6/vx5Pz+/kJAQHLZq2zl7IwESIAHvJEBx5p3r7sisxe4uctleeYmQSWJi4vTp03v37r1jx45C/iYzickJRn5+/qFDh7p16zZu3DicdeIcWQwiBBlyJFHivBy6ENG733//fcmSJfzxf+dxZs8kYGACnJpZAhRnZrGw0AwBsdmL3PQ2xEFUVNSwYcMCAwOjo6P18+NQpq4aoESsAqJWkGWjRo1C4OrkyZM4TXbB1KQcR/QOcTuESLdt2waV5oKhOQQJkAAJeAkBijMvWWjtpyk3aXQNWRAeHj548OCZM2ea/UeZhJhATSZNCAj4guqlS5cWLlwYEBCAIJYQSeKuJgOZdoJBkXBgPWfOnKCgoH379lGIX6bEjARIgAQ0I0BxphlKb+sIO7SYcm5u7rp16xC8WblyJWxRqMqdKhdUY3nPpaSKINb69et9fHzWrl0LoSyXRhoaMsHhdVJS0sSJExGxQ6wU0TsNO2dXJEACJEACIEBxBghMCgKWTbM7fWpq6uzZsyEL/vzzTxG2sdwB7ziRQEFBwYEDB7AQkydPRiwNEgqDQb0hwUAyu3wotyXJtji8PnPmDE6ux40bJ/6xB3nLln5YhwRIgARIwBYCFGe2UGKdvwnIbf7vi0qVEDI5ffp0cHDwgAEDEEHh2ZbA4sYcK3Lu3DmsiK+vb0REhPgLGVI8qZbPLj9FWyzxnj17+vTpM2vWLIhyUShyu3pjZRIgAe8lwJnbRoDizDZOrHU1gfz8/L179+Ioc8aMGdnZ2XKHllLg6uq8chEBLERaWlpoaCiWJiwsDIEuSyuCmnb5hMjcli1b/P39N27cCNve5naNxcokQAIk4OUEKM68/APgyPSzsrLWrVs3cODANWvWKI8yoQO4ZzsCVOs2kMvr16+HPlu1apXypwCxQBhKrJGw5SUMKwkrvnTpUqw4Dq+Lioqs1PSeW5wpCZAACTiPAMWZ89h6fM9iFxfTgC0S9um5c+cOGjRo9+7dSmWGaqiAnEkPBCChDh48CH02bdo0HEHixFN6JWWZKKlSxdpLAGuK5rNnzx4yZMixY8cQihOtmJMACZAACTiPgLX3svNGZc+6IWDREWzhSOI2DCRs8DExMb6+voigWPohM1QTTZi7nQDW69SpU4MHD4aSjoyMLC4uhtIy9cpsIaphKdHDmTNn0ENgYCBWnMoMWJhIgARIwAUEKM5cANnjh8D+jSDZ6sYajQAAEABJREFUnj17evfujSBKZmYmSuSssItLW1kuC2m4gIByFeRwZWVlaWlpc+bMGTBgACKd4q8IiLtWVkrcgphDqCw4OHj69OmXLl0ShaItcxIgARKwjQBrOUiA4sxBcIZvhs1Y7vfZ2dlr165FAGb9+vU5OTnKuaMOaqIEBnImdxEQq2B29Pz8/M2bNyPkuWrVKimsLa0X+sGtgoKCHTt24FR06dKl0OWiW5QLgzkJkAAJkIBTCVCcORWvZ3eOfRoJamzatGkBAQGInGHPVk0JFUSJNMQlc10RwInkvn37sIizZs1KSkqyslhQYFjxjRs3ovLWrVsh7ORErLSSdQxrcGIkQAIk4EICFGcuhO0hQ8k9GAdbMTExAwcOHDlyZFRUFC49ZAZ0U00Aawp9hkUcNmwYVNfp06dxiUooRy4SZBku09PT586d26dPH4g5qcxwS9RhTgIkQAIk4AICFGcugKyjISy5IndfbM/Czs3N3b17d/fu3WfMmJGcnFxWVmapLcs9hQAWMSUlZfbs2Z07dz548CC0l1hr4X9paWlsbOz48eNxAHr27Nkixa/MwKdC1GFOAiRAAiTgAgIUZy6A7AFDyN1X/GIFbNsrVqzw8/PD8RZUmgdMgC7aTKCwsHDnzp09e/ZcuXKl/El/BNIiIyNHjRo1ceLEjIwM+XmwuVdWJAESIIFKRKAVAYozrUgapB8EV9LS0qZPnx4cHLxnzx5l+MQgM+Q0KlXCsu7fvx9LjLBoQkJCweV/lzMwMHD+/PlYfWU4jbRIgARIgARcT4DizPXMdToigiU42Dp//vyQIUNGjBhx5swZRFN06ivdqjABLG5UVNTYsWOhydauXdurV69169alp6ejY3wSkHt34uxJgARIwJ0EKM7cSd/tYytjJOK0q3v37pMnT46Pj0cIze3u0QHNCcgVh4ElTkpKmjlz5vfffx8eHo6zbDEcbgmDOQmQAAmQgFsIUJy5BburBi1vHBEjQZ6dnb1mzZr+/ftv3LgRh1zKdtyqlTQ83cZaiylIA+FSyDIINVGOXN6CzUQCJEACJOB6AhRnrmeurxGxKycmJs6aNWvQoEEHDx40/X0Z3Kr1tWD0hgRIgAR0QoBuOI0AxZnT0HpCx4ianD17dtTlP9HR0bj0BK/pIwmQAAmQAAkYmQDFmZFXV87N7NFkYWHh/v37e/bsOX36dP6QmWRFwwsJcMokQAIkoCsCFGe6Wg5nOaM6msRlRkbGpk2bfvnll40bN+bk5KDEWWOzXxIgARIgARIgAXsIUJzZQ0vvdc34Z6q6ysrK4uLiQkJC+vXrFxkZWVJSYqYZi0iABEiABEiABNxEgOLMTeBdNazyQBN2aWnpmTNnRo4cOXbs2KioKAg1VznCcUiABEiABDyaAJ13HQGKM9exdvtIhYWFJ06c6NGjx+zZsxE8Mw2qud1DOkACJEACJEACJEBx5hWfAeiw9PT0tWvXfvvtt5s3b87OzkaJV8yckyQBUwIsIQESIAF9E6A40/f6aOEdzi5jY2NDQkIGDBhg6YfMcOKpxVDsgwRIgARIgARIoKIEKM4qStCN7W0ZurS0NDo6esSIEWPHjj1z5gyEmtlWDKSZxcJCEiABEiABEnA9AYoz1zPXYEQbtVRxcXFERESPHj3mzZvH32SmAXd2QQIkQAJeQ4ATdSMBijM3wndwaBxBIllvDPWWkZGxatWqH3/8ccuWLVlZWSix3oR3SYAESIAESIAE9ECA4kwPq2CHD5BlUmZJQ9keFXCUGRsbO23atAEDBhw5cgTxM1kBd6VNgwS8gwBnSQIkQAIeRoDizMMWTAoyyCwkU+9LSkqio6OHDRs2duzYs2fPqn7ITDY3bcgSEiABEiABEiABPRCgONPDKtjmw9W1zMqsoqKigwcP+vr6zps3LykpyWwds5Lu6r55RQIkQAIkQAIk4DYCFGduQ1/xgaG9kEQ/MLKzs1etWtW9e/f169fn5OSIctMcNU0LWUICJEACJODVBDh5PRGgONPTatjviwiD4ewyNjZ20qRJffv23b9/f0FBgSi3vz+2IAESIAESIAEScDMBijM3L0BFhhcKrKSk5NSpUyNGjBg5cuSFCxdKS0vRJ8NjgMDknQQ4axIgARLwdAIUZ569gkVFRbt37w4ICJg7d+6lS5eoyTx7Oek9CZAACZAACVSqRHGm20+B2jERJ5Ol0GHZ2dnr1q3z8fFZu3YtbHmLBgmQAAmQAAmQgOcSoDjzmLWDGpO+lpWVJSQkTJgwoXPnzuHh4fn5+fIWDRIgARIgARIojwDv65oAxZmul8escyUlJRERESNHjhw2bBgkmvghM7M1WUgCJEACJEACJOBxBCjOPGPJ5JlmXl7ezp07g4KCQkJCLB1lysqeMTd6SQIVIcC2JEACJGA4AhRnnrGk4kwzKytrzZo1vr6+69evh23JdVHZ0l2WkwAJkAAJkAAJ6JkAxZleVsesHzIGVlZWlpKSMm3atN69e+/fvx/xM7P1WUgCJEACJEACJODpBCjOPGAFi4uLT5486e/vHxwcHBcXxx8y84A1o4skQAIkoCcC9MWzCFCc6Wi9ECdTnUjiMjc3NywsbODAgaGhoVaOMnU0DbpCAiRAAiRAAiRQAQIUZxWAp0VTyC/ZDWyVPsPx5apVqwYNGrRx40YqMwmKhhcT4NRJgARIwPgEKM7cvMZQYyoPqlT5e1Eg1DIzM6dNm+bj43PgwAH+c5kqSrwkARIgARIgAaMS+FsHGHVuup6XZecgyyDFIiIievfuHRQUdPHiRfFDZii33Ih3SIAESIAESIAEDEKA4kwXC6kUXjjK3Llzp6+v76JFizIyMpS3dOErnSABEiABEtA5Abrn4QQoznSxgPJwE8ps6dKlfn5+GzduzMnJ0YVzdIIESIAESIAESMCFBCjOXAjb6lBlZWVpaWmTJ08ePHjwgQMHioqKUJ1hM0Bg8mYCnDsJkAAJeCEBijNdLDqkWEREhI+Pz/Dhw8+cOSN+yEwXntEJEiABEiABEiAB1xKgOHMN739GkSeYsqiwsHDbtm1QZvPmzUtNTWW0TJKhQQIkQAIkQAJeSIDizNWLLrSXzLOyslauXOnr67t58+b8/Hx4Y6reUMhEAiRAAiRAAhYIsNhoBCjOXLSiQo3JwaDAysrKEhMTp06dGhAQcOzYMZxsiruqmqKQOQmQAAmQAAmQgJcQoDhz0UJDjSlHKikpOXXqVHBw8OjRo6Ojo3GJu6o6KGEiAe8iwNmSAAmQAAlUqkRx5oZPAY4vd+/e3aVLl1mzZiUnJ8sf/2fMzA2LwSFJgARIgARIQGcEKM6csiCWOoX8unTp0sqVK3v16rVz587CwkJLNVlOAiRAAiRAAiTgnQQozly37lBmsbGx06dPDwwMPHr0qDjKdN3wHIkESIAESMAQBDgJwxOgOHPREuPsMiYmZvDgwePGjTt9+rQlZcYfO3PRenAYEiABEiABEtArAYoz7VcGETLRKZQWEuy8vLwDBw588803c+bMSUpKkhVwS5Ws3FLV5CUJeD4BzoAESIAESMAMAYozM1BsKTJVUbJECDJ0gpKysrKUlJTly5f/9ttv+/fv5w+ZAQsTCZAACZAACZCAFQIUZ1bgWLslFdjflS7/pyqBMkMSP2QWHBx87NgxS0eZl1szIwESIAESIAESIIG/CVCc/U3BGf8hZnb+/Hl/f/+JEyfKfy5TJeCcMS77JAESIAESMBQBTsb7CFCcOWXN8/Pzw8PDO3XqtHjx4qSkJAg1MQxiacJATqEGCEwkQAIkQAIkQAIqAhRnKiCOXAqZJXLIr9TUVGiyzp07b9++PS8vz1KPqGnpFstJwJAEOCkSIAESIAFbCFCc2UKpnDpCZiFHiouLmzx5cnBw8PHjx8UPmQnRVk4XvE0CJEACJEACJEAClwlQnF3GYF9mvnZpaWl0dHRAQMCkSZPOnTuHS1EPik0YyCnUAIGJBEiABEiABEjACgGKMytwyrmlVF2FhYXh4eG9e/detGhRSkqK8payF0vlyjq0SYAESIAEvJgAp04ClSjOHP8QiDAY9FZaWtqCBQs6deq0YcOG3Nxcx3tkSxIgARIgARIgAa8nQHFWoY9AWVlZbGzsxIkTcZoZGRkpfsisQj2yMQkYhgAnQgIkQAIk4BABirPysSE2hiTqSQNhM0ixEydODB06dPz48RcvXoRQE3WYkwAJkAAJkAAJkIDDBCjOykH3119/QYchoR5yJBhIhYWFu3btGjRoEA40MzIypGjDLSYSIAESIAESIAEScJgAxVk56KQaQz2hwJBfunRp8eLF3bp127RpU1ZWFkpwl4kESIAESIAE7CXA+iRgSoDizJSJxRIItdLS0tjY2MmTJ/ft2xdnmoifWazNGyRAAiRAAiRAAiRgPwGKMzuYFRcXHzt2bPjw4aNHj05MTOQPmdnBjlWNT4AzJAESIAES0IYAxdkVjoiKXbEs/C8/Pz8sLMzf33/evHkZGRkWarGYBEiABEiABEiABCpEgOLsCr5/fm6sUiWljdu4zM7OXrFiRa9evTZv3gwbhUwkQAIkQAIkQAIk4AwCFGdmqCqjaKWlpRcvXpw4cWLXrl2PHz8ufshMWcFMexaRAAmQAAmQgFkCLCQBGwhQnF0FCUEycS2MoqKio0ePDhkyZNSoUZcuXRKFqCAN2EwkQAIkQAIkQAIkoCEBirOrYMqQGIyCgoLt27f7+fktWrQIyuyqerwgAa8nQAAkQAIkQAJOIkBxZh5sfn7+ihUr+vbtu2XLlqysLPOVWEoCJEACJEACJEACWhOgOLuKKAJmuC4uLp4+fXqvXr34m8xAg4kESIAESIAESMCVBCjOrtAWskz8MFlpaenhw4dxlMnfZHaFDv9HAiRAAiTgCAG2IQFHCFCcXaEmZNmVi0qVoM+kTYMESIAESIAESIAEXEaA4sxlqDkQCXgyAfpOAiRAAiTgKgIUZ64izXFIgARIgARIgARIwAYCXifObGDCKiRAAiRAAiRAAiTgNgIUZ25Dz4FJgARIgAQMRoDTIQFNCFCcaYKRnZAACZAACZAACZCANgQozrThyF5IwFgEOBsSIAESIAG3EaA4cxt6DkwCJEACJEACJEACpgSMLs5MZ8wSEiABEiABEiABEtAxAYozHS8OXSMBEiABEtAzAfpGAs4hQHHmHK7slQRIgARIgARIgAQcIkBx5hA2NiIBYxHgbEiABEiABPRDgOJMP2tBT0iABEiABEiABEigksHEGVeUBEiABEiABEiABDybAMWZZ68fvScBEiABEnAVAY5DAi4iQHHmItAchgRIgARIgARIgARsIUBxZgsl1iEBYxHgbEiABEiABHRMgOJMx4tD10iABEiABEiABLyPgGeLM+9bL86YBEiABEiABEjA4AQozgy+wJweCZAACZCAYwTYigTcRYDizF3kOS4JkAAJkAAJkAAJmCFAcWYGCotIwBl8nAkAABAASURBVFgEOBsSIAESIAFPIkBx5kmrRV9JgARIgARIgAQMT8CjxJnhV4MTJAESIAESIAES8HoCFGde/xEgABIgARIggUqVKhECCeiGAMWZbpaCjpAACZAACZAACZBApUoUZ/wUkIDRCHA+JEACJEACHk2A4syjl4/OkwAJkAAJkAAJGI2AnsWZ0VhzPiRAAiRAAiRAAiRQLgGKs3IRsQIJkAAJkIDxCHBGJKBfAhRn+l0bekYCJEACJEACJOCFBCjOvHDROWVjEeBsSIAESIAEjEWA4sxY68nZkAAJkAAJkAAJeDgBHYkzDydJ90mABEiABEiABEhAAwIUZxpAZBckQAIkQAI6J0D3SMCDCFCcedBi0VUSIAESIAESIAHjE6A4M/4ac4bGIsDZkAAJkAAJGJwAxZnBF5jTIwESIAESIAES8CwC7hNnnsWJ3pIACZAACZAACZCASwhQnLkEMwchARIgARJwJQGORQKeTIDizJNXj76TAAmQAAmQAAkYjgDFmeGWlBMyFgHOhgRIgARIwNsIUJx524pzviRAAiRAAiRAArom4DJxpmsKdI4ESIAESIAESIAEdEKA4kwnC0E3SIAESIAEHCbAhiRgKAIUZ4ZaTk6GBEiABEiABEjA0wlQnHn6CtJ/YxHgbEiABEiABLyeAMWZ138ECIAESIAESIAESEBPBJwlzvQ0R/pCAiRAAiRAAiRAAh5DgOLMY5aKjpIACZAACQgCzEnA2AQozoy9vpwdCZAACZAACZCAhxGgOPOwBaO7xiLA2ZAACZAACZCAmgDFmZoIr0mABEiABEiABEjAjQQ0EmdunAGHJgESIAESIAESIAEDEaA4M9BiciokQAIkYEgCnBQJeBkBijMvW3BOlwRIgARIgARIQN8EKM70vT70zlgEOBsSIAESIAESKJcAxVm5iFiBBEiABEiABEiABFxHwDFx5jr/OBIJkAAJkAAJkAAJeBUBijOvWm5OlgRIgAT0T4AekoC3E6A48/ZPAOdPAiRAAiRAAiSgKwIUZ7paDjpjLAKcDQmQAAmQAAnYT4DizH5mbEECJEACJEACJEACTiNgkzhz2ujsmARIgARIgARIgARI4CoCFGdX4eAFCZAACZCAiwlwOBIgARUBijMVEF6SAAmQAAmQAAmQgDsJUJy5kz7HNhYBzoYESIAESIAENCBAcaYBRHZBAiRAAiRAAiRAAloRMCfOtOqb/ZAACZAACZAACZAACdhJgOLMTmCsTgIkQAIkUBECbEsCJFAeAYqz8gjxPgmQAAmQAAmQAAm4kADFmQthcyhjEeBsSIAESIAESMAZBCjOnEGVfZIACZAACZAACZCAgwSqVKrkYEs2IwESIAESIAESIAES0JwAI2eaI2WHJEACJEACkgANEiABuwlQnNmNjA1IgARIgARIgARIwHkEKM6cx5Y9G4sAZ0MCJEACJEACLiFAceYSzByEBEiABEiABEiABCwRuLqc4uxqHrwiARIgARIgARIgAbcSoDhzK34OTgIkQALGIsDZkAAJVJwAxVnFGbIHEiABEiABEiABEtCMAMWZZijZkbEIcDYkQAIkQAIk4B4CFGfu4c5RSYAESIAESIAEvJVAOfOmOCsHEG+TAAmQAAmQAAmQgCsJUJy5kjbHIgESIAFjEeBsSIAEnECA4swJUNklCZAACZAACZAACThKgOLMUXJsZywCnA0JkAAJkAAJ6IQAxZlOFoJukAAJkAAJkAAJGJOAvbOiOLOXGOuTAAmQAAmQAAmQgBMJUJw5ES67JgESIAFjEeBsSIAEXEGA4swVlDkGCZAACZAACZAACdhIgOLMRlCsZiwCnA0JkAAJkAAJ6JUAxZleV4Z+kQAJkAAJkAAJeCKBCvtMcVZhhOyABEiABEiABEiABLQjQHGmHUv2RAIkQALGIsDZkAAJuIUAxZlbsHNQEiABEiABEiABEjBPgOLMPBeWGosAZ0MCJEACJEACHkOA4sxjloqOkgAJkAAJkAAJ6I+A9h5RnGnPlD2SAAmQAAmQAAmQgMMEKM4cRseGJEACJGAsApwNCZCAPghQnOljHegFCZAACZAACZAACVwmQHF2GQMzYxHgbEiABEiABEjAcwlQnHnu2tFzEiABEiABEiABVxNwwXgUZy6AzCFIgARIgARIgARIwFYCFGe2kmI9EiABEjAWAc6GBEhApwQoznS6MHSLBEiABEiABEjAOwlQnHnnuhtr1pwNCZAACZAACRiIAMWZgRaTUyEBEiABEiABEtCWgDt6ozhzB3WOSQIkQAIkQAIkQAIWCFCcWQDDYhIgARIwFgHOhgRIwFMIUJx5ykrRTxIgARIgARIgAa8gQHHmFctsrElyNiRAAiRAAiRgZAIUZ0ZeXc6NBEiABEiABEjAHgK6qEtxpotloBMkQAIkQAIkQAIkIAhQnAkOzEmABEjAWAQ4GxIgAY8lQHHmsUtHx0mABEiABEiABIxIgOLMiKtqrDlxNiRAAiRAAiTgVQQozrxquTlZEiABEiABEiCBfwjo06I40+e60CsSIAESIAESIAEvJUBx5qULz2mTAAkYiwBnQwIkYBwCFGfGWUvOhARIgARIgARIwAAEKM4MsIjGmgJnQwIkQAIkQALeTYDizLvXn7MnARIgARIgAe8h4CEzpTjzkIWimyRAAiRAAiRAAt5BgOLMO9aZsyQBEjAWAc6GBEjAwAQozgy8uJwaCZAACZAACZCA5xGgOPO8NTOWx5wNCZAACZAACZDAVQQozq7CwQsSIAESIAESIAGjEPDUeVCceerK0W8SIAESIAESIAEXEKh8+Y8LBpJDUJxJFDRIgARIQK8E6BcJkID7CPx1+Y8rx6c4cyVtjkUCJEACJEACJEAC5RCgOCsHEG9rS4C9kQAJkAAJkAAJWCfgZnGGY1zr/vEuCZAACZAACZAACdhCwDB13CzOcIxrGJScCAmQAAmQAAmQgAEIuF2cuFmclV7+Y4CF5BRIgARIQDsC7IkESMBtBMrKyrxdnJWUlBQXF7ttBTgwCZAACZAACZAACSgIlJWZEWcu/iksd0bOMFWIUyQwgY2cyWgEOB8SIAESIAES8CgCONITykTptWmJ8q7mtjvFGaYqk+YTY4ckQAIkQAIkQAJGJqDR3CBFZE/CLisrkyVuMdwpzsSEi4qKQEHgECXMSYAESIAESIAESMDFBMQhXkFBQUlJiYuHVg3nfnEGBBBnKrd4SQIkQALeQ4AzJQEScCMBocnggIgTQZa4/afhyxFnwlF47KSE/kEB57tO6p/dkgAJkAAJkAAJkICNBIQscXbMSMpBS16VI84sNdOwHMeaFGca8nRrVxycBEiABEiABDyYAARJYWGhsydQrvgrR5xVqVJOhYpPID8/H/qsXBVZ8YHYAwmQAAmQAAmQgMcScLrjkCJQZpAliJ85dTCluMKgpmOVo72U7dHYbBcodzhh/jk5OWABFQnb4X7YkARIgARIgARIgAQqQgA6BNGi7OxsGBXpp9y21apVU9VRjWhNnEGK1ahRQ9le1Vh5yzEbHYICxBmaYzjkekj68UQPNOgDCZCAxgTYHQmQwGUC0ACX/++eTI4uN32UFBQU5ObmOtuh6tWrKwfFcPISNpI1cYbbNWvWRO7UJMWZU0exsXMsDGqKHAYTCZAACZAACZCAkwioFImTRrHULUYX273IRTVEiyBLlCWiXNsc4kx2CDeQ5KUwyhFnaG/aRrTUJMf8MzMzIVRhaNJhBTtx6mQr6JsOm9MlEiABEiABEvBcAspNHzoEKT8/PyMjA4bzJoVBlZEvjCWSckRr4gzta9WqpaytuQ2H0tPTXRBCtNdznAfjSJeJBEiABEiABEjASQQQALKyO7vgFnSOHEXYEGeQJRAnstwZBsSZGA6dC0PkuBSpHHHWuHFjVQPRTKsc8wcFiDMYWvVZ8X7wcWnbtm3fvn0H8A8JkAAJkAAJkIATCGCTff/997HhVnzXdrgHlfbAJQTJpUuXYDjcZ7kNIasgrmQ1s2O5WZzBOZzvIoRYWloKWyepatWqbdq0+emnn37hHxIgARKoKAG2JwESMEMAmyy2Wmy4Otn6hRsQZ9nZ2cJ2Ug5xds0116h+G4ZqLDvEGbpTNdbksqys7OLFi0VFRZr0plUn+LhAzjORAAmQAAmQAAloRaBatWrKrrDVarVra9JPcXFxfHw8cicJHuEkOm/SpAlycWk2t0OcmW1f8UKIswsXLoBFxbtiD84lwN5JgARIgARIoAIEVIpEdVmBjrVpijhRTEwMZInZo0ZtxqhUCbNu2LAh8kqW/5Qjzpo3by7bO8lXdAsWIGLZSd4hARIgARIgARIwGgEIgH+m5HJLyBvpAy4LCwshSCDONPEFHcp+VPb111+vLJHVpGFNnOFA9JZbbkEuazvDAIUzZ87o57dpOGOO7JMESIAESIAESEBXBIQskyIJl4gTRUVFwdDET2U/0sZwkFU333wzcjEKSoShzK2JMzSAuMPxsLKB5jY8TklJSU5OhqF55+yQBEiABFxMgMORAAl4IgGIkMzMzPj4eMSMnOc/RoGsuu666yCxMAoukWCoUjnirF69ejgZVbXR/LKkpCQyMtKpODT3mR2SAAmQAAmQAAkYhgBEyOnTp/Pz8509I8iqunXrilGERBO2MrcmzlCvRo0azZs3d/bfpwCRI0eOlJaWmtWPcIPJHQQ4JgmQAAmQAAkYloBKGEGEHDt2DILEqRPGaSbOJGvXrq0aXTWoRXEmmiFydvvttwtb1VLDSxAJDw8vLCx09kAa+syuSIAESIAESIAEHCXg/nYiHiSFBw7xdu/ejdypnkGc3XHHHTJyZmksi+IMTsPjOnXq3HLLLZYaa1UOoZqQkICDXgyqVZ/shwRIgARIgARIgAQsERCSQ+Sok56efvbs2b/++gu28xKOIiGrIM4gsayMYlGciTYQZzfffDMON8Wl8/K8vLxDhw4hhOa8IdgzCZAACWhPgD2SAAl4JgEhj0QO+XH48OGcnBwXiLMWLVpAXFlnVo44q1atWrNmzRo1amS9FwfuChyyYUFBAU42EUKT5c4GJIemQQIkQAIkQAIk4J0EhNjAaSZESGFhobMhNG7cuGnTpoifWR+oHHGGw9HmzZtD5cGw3pG9dwUOKcWKiooiIiLi4uKgz0RX8pa4ZO5sAuyfBEiABEiABLyTQGZmJiJnzv6rmtBkEFSQVeUqHIviTLa8/vrrcT6quTgTyw+JJgaCAWXGv7MpsDAnARIgARIgASMR0PNccKZ5/PjxixcvyvCQk7yF4IGggqyCYX0Ii+IMagkt0f6aa665+eabcb6JS2ckMRDy5ORkiDOcb2JQJGeMxT5JgARIgARIgARIQEmguLj40KFDiYmJkCLKcs3tGjVqQFBBVpUrciyKM/gkGlevXv3WW291wY+dIZwI6Sr+zqazAWF2TCRAAiRgPwG2IAESMA4BiA0kxIbgL0ZWAAAQAElEQVSOHj2am5vr7Ik1bNgQgqpmzZrlDmRNnMFjtMcR6X333XfddddpfrIp+scQIiGceOLEiVOnTiHAKEqYkwAJkAAJkAAJkICTCCAIBe0RFRV17NixkpISJ40iuoWIatasGQQVBlXpH1FBmVsUZ2gs6qE79IVAHAxR4qQcviJstmvXrszMTAyBS+RMziLAfkmABEiABEjAuwlA6uTk5Ozdu/fcuXPOVh0QUbfccsu9996LmBfGtQ7eojhTelm3bt2HH364Vq1a1vuq+F2c+27dujUuLg6jl+t6xYdjDyRAAiRAAiRAAtoT8IQeoTQQNktKSvrjjz8gPzR3WSVjIKIeffTROnXqYNxyx7IoztBStofKe/LJJ9EjClVJNbbqrr2XGDE6Onrnzp2q6CLK7e2K9UmABEiABEiABEjAkoRAKKu0tHTfvn0RERFQac4GBRH11FNP2fjXK62JMyG8kGMCjzzyiNm//Glpzg5PsqCgYP78+Xl5eaIH0T98EJfMSYAESMCVBDgWCZCApxNQSQihK8SkEDCbN2+ek/4qgHIg+NC8efNWrVpBUImhrefWxJloCTmJTnGy2aZNm+rVq4tC5+UYLjIycvXq1UDmvFHYMwmQAAmQAAmQgJcQgIyRMxU2cpzRbdy4MTw8HPEzeddJBuTT66+/juCZjf1bFGdS8WECsBGIe+WVVyDRcGlj1w5XE8GzhIQEjOuC4Rz206Ma0lkSIAESIAES8EYC0BJIqpmjJCUlZc6cOZAcqlvOuKxXr97LL78MKWVj5xbFmUoVIRB355133n///apyG4exqxqCZ8ePH1+zZo0L/pUruxxjZRIgARIgARIgARMCui4w1S0owenchg0bDh48KMNmKHTSNKCgHnjgAYgoGDYOYVGcmbaH7nvppZcQmjO9pXnJpUuX1q1bFxUVBaGmeefskARIgARIgARIwGsJQFqcPXt29erVaWlpEgJiadLW1oBwgnyCiLK9W4viTCUh4XStWrWefPLJFi1aqG7ZPpjtNaFkcQy8YsUK8TvPbG/ImiRAAiTgOAG2JAES8AICOTk5OJ3bs2dPUVGRs6cLyXTLLbe0bt3aln8YQDpjUZxBjaESOkUOG0bVqlXvvvvu5557DhoQhU5NGDE7O3vhwoW7d+9G7NGpY7FzEiABEiABEiABLyEAUQFpMX/+/PT0dBdMGZIJwumee+6BiLJ9OIviTHQBkQRZhoRL5E2bNkXwrEmTJrBR4tSEoWNiYqZNm3bx4kXYTh3LeJ1zRiRAAiRAAiTg5QTMapXk5OS5c+e67OemIJkQNkNu1hlLC1SOOEMzIYxEDgH4+OOPQwDa/kNt6MHhVFJSEhYWFhISUlBQYNesHB6RDUmABEiABEiABKwT0PNdpVoQ0kV6i1vQFYsXL964cSPiZ7LceQaiZZBMEE6QT3aNUr44E91hSjCgyW677bZnn322bt26uHR2wqB5eXk43Fy/fj30mbOHY/8kQAIkQAIkQAIeSkBIMZGbnUJRUdEff/wxY8aMrKwssxU0KYR0QT8ir1+//jPPPHPrrbeKS5TbmGwVZ6K7srKy2rVrv/fee7fffru9I4ke7MqBGAnHmkOGDNm6dSt/s4Zd9FiZBEigPAK8TwIkYBwC1mUJJER4ePjgwYPPnDkDaeGkacMH0Tly2JBlbdu2hXCSw6FQ2lYM+8QZOkW644477PpdalaGt+VWaWlpRETE5MmTjx496po4pC1esQ4JkAAJkAAJkIA+CUCrKB3DaeapU6fGjx9/6NAhiArlLW1taDLZIY4yIZZUwSxlBVnT1LBPnIn2NWvW/Oijj5o3b66avLirbS6GQCgyLCxszJgx0dHRiN7JIWycpKxvWIMTIwESIAESIAES+B8BpTyAjSO4CRMmbN68Wf6IlFAX/6vulP83a9asXbt2kEwO9O6IOMOUEDx75513oAodGNKuJmAq6ufl5a1btw4ByZSUFFkIT8Rd5iRAAiRAAiRAAk4h4MmdQjCkp6cPHTp0xYoV2dnZmIpQDiiH7bxUo0YNsz8DJkYvd1ybxJnpHKAEP/nkkzvvvNPGYcr1w5YKubm5q1ev7tmzZ1RUFM83bSHGOiRAAiRAAiTgJQRMBQlOMGNiYvr377948eKMjAzBwVTSiHINc3hy1113mQ2b2Ti6TeIMw6icrlKlCo5R27Zta9c/R6DqxIFL6LNVq1b5+voePHgwPz/ftAe4iqQsl5fSUN6lTQIk4D0EOFMSIAEDE1DpHpxgHjlyZODAgVBmImbmsrnXr18fAglnjBBLjg1qkzgz7RpCp2HDhm3atHnwwQerVq1qWsEZJRgU3eJ8c8OGDX5+fsih1VAiExZGJFkCAyXI0VYYsJlIgARIgARIgAQMQACbu9lZIHyzc+fOgIAABHSynPmLM+To0hOIopYtW7788ssNGjSQhbKajYaD4gxCB0Pee++9r7/+euPGjW0crILVMKjoAdDDwsIAff78+YAuyuGPSKIOclwiF0nUEbbn55wBCZAACZAACZBAJbm5K3d8BHGWLl2KmNkff/yhCuIAmbImLrVK0pNrrrnmjTfegEBC2EwW2juKg+JMDIMzzffee++hhx6qVq2aKHFZXlxcHBkZOXjwYITQoqOji4qKBAKRC/TChkviEgYTCZAACZAACZCAVQKedxPbPRL2emiDCxcuDB061N/f/9ChQ4WFhaaTQU3TQq1KIIdatWr17rvvQiCZ7RNOmi1XFVZInGGMW2655bvvvmvatKmqX9xSlWh+WVpaGhcXN3Xq1Pbt2y9btiwhIQElYhQVetWlqMOcBEiABEiABEjAowmI/R2SAwIgKSkJh5g//PDD6NGjY2JiUGI6NdQUhdIQl1rl1113HRyANELYzGyfwmGzt5SFFRJn6Agi8aWXXsLhZo0aNXApk43Dy/qOGRiloKAgPDy8Z8+eQUFBu3btyszMVP4iNHSLOsiZSIAEvI4AJ0wCJGB0AtBY2PSzs7OhBBAw69Gjx59//oljTdN5oyYKpSSQBgq1ShBCkEP/+c9/II1k/2Jce4dwRJxhSAyGJAarU6fOV1999cADD1jSiaKa83IsDPTy7Nmze/fuPWrUqMOHD+fm5sJJMaL0U1wyJwESIAESIAESMAABbPT5+fnHjx8fO3Zsnz59pk2bhvM0ETDDLUxQCACRixIUOilBArVs2RJySPmPNWEsOa5wAyW2JLvFGXpHwmBIYoCqVaved999X3/99TXXXCNKRI5qwnBNjhAaDpgnTpz466+/BgcHR0VFoQS6zTWjO3UUdk4CJEACJEACJCAJYHMvLCzE2SUiMp06dYI427dvH4SarCAMIVRELkqcp0wggb744ot77rkHKk2Mpcrhhu2j2y3O0LvpeHXr1n3llVfeeustRNHkXdOa8paTDKxWRkYGJNq4ceM++OCDfv364aAzISFBqDTpjzSUbgAZkrJE2pbKZQUaJEACJEACJOChBHTottltGn5il4cmw7aOzd3X1/fdd98dNmzY/v3709PTRcAMdawnSz1bb1XuXYifd95557XXXoNhpbLto9stziyNeuONN37++eePP/64C/5NJ5UPKvGExYN8Pnfu3OTJkz/77DME0ubOnbtnzx4sJ8rF+okmSkywkVQ9i0tL5eIucxIgARIgARIgAQ0JiD1a5OgW23pRUVFycjKCL6GhoV27doXeGD9+fHR0dG5uLu6ijhsTZA/ED1y66aabpM8V9EczcYbDzUcfffTLL79s3rx5BX2yt7kl8VRcXIy1XLduXc+ePTt37uzj4wO5tmHDhosXL2KZcRcDWeJoqRxNmEiABHRJgE6RAAl4GAGxfZtuuCjBLWzTiJOlpqbu3r171qxZfn5+2Mq7deu2atWqpKQk7OOoIyeMJtJ2sdGsWTMos4cfftjSgaYD/mgmzjB2zZo1X3311bZt26p+Gg63XJ/kmiFUBmV97NixBQsWBAcH9+nT57fffhswYMCiRYtQiFtYe3wCVNJbNrfkuazgxg+EJd9YTgIkQAIkQAJ6I2C6XYoSuZ9iI8Z2jE0ZW/OJEycWL148aNCgX375BYLM398/JCTkwIEDOTk5JSUlmBraIsEQSXYiLl2W16pV66OPPnr99dchgTQcVEtxBreuueaaDh06PPvsszWu/s0auOXehGXDkmdkZERFRW3evHnKlCm9e/f+5JNP3nzzTShxXG7fvh0RtZSUFNTJzs7Oy8vD5wOfAHxWREIPyiSng0Kztiy022ADEiABEiABEvB8AtgflUlspiLH9opNFlstNtz09HRsvtiCd+zYMW3aNEixt99+++OPP8apF8671q5de/ToUZyDIVSGtpKK6FleusBQakExHKTO888/D9nTWOt/KkljcQZ3b7jhhn79+j3yyCPVXP7PBmB006SiieXEZwKqHCt9/vz5ffv2zZ49G+G0Dz/88Iknnnjttde++eYb+D927FhE2iDj/vzzT9Q5fPhwRETE6dOnz507FxMTExcXl5CQkJiYiMiqMqFP5SVtEiABEiABEtAXARd6g40yPj7+woUL2DqxgWIbPXLkCLZUbKxbtmzB+dX48eNxkPX999+/8cYbrVu3xslbr169Zs6cuXfvXjTBliriZEpNZrrLu6wE+kE5FkTOY489BsFw/fXXq5QGqqkqo8SupJk4k55VrVr1gQce+PHHH++44w5ZaJdP2laWgEydwS0sObQa9Ht+fn5WVtbJkyc3bdo0Y8aMgICAX3/99bPPPmvXrt2XX375ww8/dOrUqUuXLj169EDIDR8mHx8fRFlxBI6gqzBgM5EACZAACZAACQgCAwcOxF6J8Ae2Tmyg2EaxmX711VefXv7TsWNHVJs6deqGDRug2zIzM7ERYzvGpoytGRu0tmJA296qVKkCkQOpc99998E27dxUcpjWsVKimTgTHEVep06dl1566fPPP3f9Xw6wMlXhm3VeqFNaWooDUIRP8RFBxBWnnIi1RkZGQshv27Zt/fr1q1atgt4PDQ2ddfkPTsEv/58ZCZCASwlwMBIgAZ0TmDdvHs6gVqxYga0TGyi2UYgwBNLS0tKwvWKTxVYLKYZtF5svtm+zG7TZQlR2Y4JLiJZ98cUX//73v+vWrav0BLfEXJSFDtgaizO4JZxo0qQJwk4fffSRpX/7U1Rzfe4ANTRBgpDHB0gkfJiUCWJOeUmbBEiABEiABEhAEBD7JnJso9hMkSxt/WZvmS201INryhGBwgksRA6kjso9XEohVBFnNBNnSm+Ec82aNevZs+f7778Pfaa8WxF3jdiWcyIBEiABEiABEtAjAVP1glDZe++916tXr6ZNm5re1WoOmokz4RBkGQzpboMGDbp16/bKK69gMihnIgESIAESIAEScCEBDmU3Aalh0FKoGhgiQcxA0vTo0aNhw4aixEm5xuJMOSV4XKVKlVtvvfX3339/+eWXEQZEiUiqaqKQOQmQAAmQ+wl8nQAAC35JREFUAAmQAAm4l4BKkElnateu/dJLL/32228QNs6WMRqLM8wBHsuJwahWrVrLli0xmeeee07+ijaUoyYTCZAACdhKgPVIgARIwH0EIGCeffZZBJseeughCBvpCDSPtDU0tBdnEF4ImAkXhdOY0iOPPNK/f//WrVvDFreYkwAJkAAJkAAJkID+CUC6PPnkkz4+Po8++miNq3/HPjSPM/zXXpzBS+mrNKpXrw6xOXz48BdeeEF5vonK3pY4XxIgARIgARIgAU8hANGCo78hQ4ZAxkDMwG0ReILhvOQUcQZ3pSyDLVLVqlXvueeePn36vPLKK/Xq1ROFzEmABEiABEiABLQiwH4qTkCpvSBX2rRpg6O/++67DzJGeQsDqS5RolVyljgz6zGOaR9++OGuXbu+8cYb9evX12oO7IcESIAESIAESIAENCEgo0sNGjR48803IVogXaDM0Lm4JXJ5CUPz5CxxZtZRzAchwVatWvXr169du3YQpGarsZAESMDrCRAACZAACbiTAE4zP/jgAxz3idNMsyEn5/nnUnEm5ob42e233x4YGNixY8cbb7xR/u0B502SPZMACZAACZAACZCALQQgSyBOIFGCg4PvuOMOiBZbWmlbx6XiTLoOlVa3bt2ffvqpc+fODz74oOrvPuCurOnxBidAAiRAAiRAAiTgIQQgSFq2bNmlS5dffvkF53vuEiSuFmc42ZQL1KRJk08//RQxw+eff7527dqyXNZxFxTpCQ0SIAESIAES0C8BeqYpgVq1aj333HO9evX65JNPIFE07du+zlwtzpR6C3bDhg3btGnj5+f39ttv43wXJUr3pUpTFtImARIgARIgARIgAQ0JQH5AhLz77rsBAQGvvfYaxImGnTvQlUvFmUpsgQU8rlmzJkKIwAGtisNdRBRRKJKoIGzmJEACBibAqZEACZCAuwhUr179tttu69GjB0JFECSQJcITlWgRha7JnS7OpMDCJKUt5oYSYVSpUuX666//4YcfgoODX375ZShWUVNWENWYkwAJkAAJkAAJkIAmBKA0kCA5cIIH+fHjjz/ecMMNECSic9xCErbrc6eLMymwTCcpb8EAjvr167/00ksDBgxo3779zTff7Ja/H1HhBWAHJEACJEACJEACeiFgqj1QggT/IDxuvPFGBIYgPF599VWIEJSgXCQoE2G4JXe6OLMyK0EHFWAICoglPvDAAx07dvT39//Pf/6DA2DcQgUmEiABEiABEvB6AgRgNwGhLlTNUFi3bt1//etfOMeE5MBRJk42UYikqumuS3eKMzlnqcDABbq1SZMmb7311uDBg3/77TccA0OxyQqyCQ0SIAESIAESIAESsE5ApR9wCR12++23//rrr8OHD3/nnXeuvfZaFEJ+ILfelSvv6kKcAYpqzjVq1Ljrrru6du0aEhLy0Ucf4ZQTJao6vCQBEvBUAvSbBEiABFxCQCkwIMtwjtm2bdupU6dCYNxzzz21atVyiRd2D6ILcSa9lroVNGGD2sMPPxwUFOTj4/Paa69dd911ICsr0yABEiABEiABEiCBcglUrVq1efPmEBJ9+/YdOnRo69atITAgM8pt6K4KuhBnEhA0mQAhS3DK2bhx4/fee8/X17d///6vvvpqvXr1UCiquT2nAyRAAiRAAiRAArolAMFQt27dF198EbJs4MCBOIu75pprUGjJYSk/LFVwTbkuxJnUZKo5y/KaNWsi/Pjxxx8HBAQA7iOPPALWEMKq+rwkARIgARIgAcMQ4EQqQgAKrE6dOo8++qifnx+iZZ988sndd9+NgJn1PqXwsF7N2Xd1Ic4sCVVVee3ate+4446vv/56wYIF48aNa9OmDQ6PoduwAM7GxP5JgARIgARIgAT0TwDKoUaNGtdff/2///3v4cOHz58//8svv4Qsg4TALf37LzzUhTizXaiCLNTYDTfcIH6gLygo6MMPP2zZsmWDBg3sCqShHzF/B/KKtHVgODYhAc8nwBmQAAmQwD8EVNuo6vKfenZakAH16tW777773n//fRyyTZ8+/dNPP0UQB9GyypUr29mZm6vrQpw5wKBatWpNmjR59913oc8CAwM7d+780ksv4SAZerly5fLXwHY5aOpbRdqa9sYSEiABEiABEvAqAqptVHUpUVSufGU3r1z5b6Ny5b9zeVcalStXrl69OgQAZADEAA4xg4ODP/roo6ZNm0IqyGqeZXiqOANlLCe4Q6K98MILHTp0gEQbP348jIcffrh+/fq4hQVDNS0T+yIBEiABEiABEnAJAezyYhxhiFyUIMcWj40eobL777//66+/Hj16NGRAx44d27Rp06xZM8g11PHc5KniTLlIVapUwfLce++9b7zxRq9evUJDQ6dMmfLxxx/jjBnCuW7dulg/1LF3kbDwsonSRqHqEiVMJEACJEACJFAhAl7WWO6k0rAOANWwlWNDr1279rXXXost/pNPPpk2bdqSJUsGDBjw9ttv33PPPXXq1MHhpvV+POKup4ozLBKSUqIBN9YMMbObbrrpzTffHDNmzObNm0NCQrp06QId/eCDD6IcGg51sLpIqG89qTpXVrZyS1mNNgmQAAmQAAmQgFkC2Emxj+MWDORmEypgv8bGje37xhtvxFb+8ssvd+rUaeLEievXr0e0DNt9ixYtGjVqhFAZaqK+2X48rtBTxRlAYzmxEjBEkksCo2rVqjVr1sQJ9L/+9S+cQCOQNnLkSChrrCgias8+++ydd96Ju1DfWE5URj9oJfoxm2Mss+UsJAESMCXAEhIgARKwhYBqb8VGjO0YmzK25lq1amGbRnjsueeew8aN7dvHxwdb+fTp03FE9sorr1x33XWog/pohaTqypbR9VzHk8QZ6KtQqhZDVoAhEpatRo0aWOAnnniiXbt23bp1GzRo0ODBg4cOHTpixAjItR9++OGdd9556qmn7rjjjsaNG0OuYbEh7PDJEAmCHQmfFeRMJEACJEACJEACFScgdlhs0Nhwse1i80X0Cxvx008/jU0ZW7Ovry+2aWzWwcHB2LixfX/00UfYylENreAA9IBSA2DTR4lMyluy0IMMTxJnYK2ir7pEBYEeBpKwRQ6VhrXEhwBaG3HRf//73++///53333Xo0ePoKCgCRMmzJs3b82aNQsXLkSYbciQIX379v3ll1/w+fjyyy8//fTT//u///uAf0iABEiABEiABCpA4MMPP/zvf/+LjbV9+/Y///wzttphw4Zh28Xmiy0YGzG2Y2zK2Jq//fbbtm3bvvjii9iysXFj+0aUBEns6eXmQh6IvNzKOqzgSeIM+FSSS3WJCrYkCDUsMLRanTp1rr32WhxX33XXXQ888ECrVq0g2t57772vvvrqt99+Q1zNz88PQg1x1PHjx+MTw0QCJEACJEACGhHwxm7Gjx8v4mHYXnFM+euvv37++efYdl988cWHHnro/vvvR/DspptuwtaMDRo7NRK2bLGzQ2nZu+nbW18MpIfcw8SZ85Bh1fEJQMJHAboNEVcETiHVEW5lIgESIAESIAES0IoA9lbssEjYapGw7SJh/0XCXozkvL3eU3qmOPOUlaKfJKBXAvSLBEiABEhAUwIUZ5riZGckQAIkQAIkQAIkUDECFGf/8KNFAiRAAiRAAiRAAm4nQHHm9iWgAyRAAiRAAsYnwBmSgO0EKM5sZ8WaJEACJEACJEACJOB0AhRnTkfMAUjAWAQ4GxIgARIgAecSoDhzLl/2TgIkQAIkQAIkQAJ2EfBicWYXJ1YmARIgARIgARIgAZcQoDhzCWYOQgIkQAIk4FUEOFkSqAABirMKwGNTEiABEiABEiABEtCaAMWZ1kTZHwkYiwBnQwIkQAIk4GICVTz3nwV1MSkORwIkQAIkQAIkQAIuIFAFfyp7xR9OkgRIgARIgARIgAT0TqBSpUr/DwAA//8OVOOjAAAABklEQVQDAHSoiKypbq39AAAAAElFTkSuQmCC;clipPath=inset(4.17% 0.67% 2.08% 1% round 14%);shadow=1;" parent="1" vertex="1">
          <mxGeometry x="502" y="464" width="45" height="34.32203389830509" as="geometry" />
        </mxCell>
        <mxCell id="k7_C4-kCgMkRN1-nabnP-32" value="" style="shape=cross;whiteSpace=wrap;html=1;fillColor=#000000;" parent="1" vertex="1">
          <mxGeometry x="555" y="472.46000000000004" width="21" height="19.02" as="geometry" />
        </mxCell>
        <mxCell id="k7_C4-kCgMkRN1-nabnP-33" value="" style="shape=image;verticalLabelPosition=bottom;labelBackgroundColor=default;verticalAlign=top;aspect=fixed;imageAspect=0;editableCssRules=.*;image=data:image/svg+xml,PHN2ZyB4bWxucz0iaHR0cDovL3d3dy53My5vcmcvMjAwMC9zdmciIGhlaWdodD0iMTAwIiB3aWR0aD0iMTAwIiBzaGFwZS1yZW5kZXJpbmc9ImNyaXNwRWRnZXMiIHZpZXdCb3g9IjAgMCA2IDYiPjxyZWN0IGZpbGw9ImJsYWNrIiBoZWlnaHQ9IjYiIHdpZHRoPSI2IiB5PSIwIiB4PSIwIi8+PHJlY3QgZmlsbD0id2hpdGUiIHk9IjEiIHg9IjEiIGhlaWdodD0iMSIgd2lkdGg9IjEiLz48cmVjdCBmaWxsPSJ3aGl0ZSIgeT0iMSIgeD0iMyIgaGVpZ2h0PSIxIiB3aWR0aD0iMS41Ii8+PHJlY3QgZmlsbD0id2hpdGUiIHk9IjEiIHg9IjQiIGhlaWdodD0iMSIgd2lkdGg9IjEiLz48cmVjdCBmaWxsPSJ3aGl0ZSIgeT0iMSIgeD0iNCIgaGVpZ2h0PSIxLjUiIHdpZHRoPSIxIi8+PHJlY3QgZmlsbD0id2hpdGUiIHk9IjIiIHg9IjIiIGhlaWdodD0iMSIgd2lkdGg9IjEiLz48cmVjdCBmaWxsPSJ3aGl0ZSIgeT0iMiIgeD0iNCIgaGVpZ2h0PSIxIiB3aWR0aD0iMSIvPjxyZWN0IGZpbGw9IndoaXRlIiB5PSIyIiB4PSI0IiBoZWlnaHQ9IjEuNSIgd2lkdGg9IjEiLz48cmVjdCBmaWxsPSJ3aGl0ZSIgeT0iMyIgeD0iMyIgaGVpZ2h0PSIxIiB3aWR0aD0iMS41Ii8+PHJlY3QgZmlsbD0id2hpdGUiIHk9IjMiIHg9IjMiIGhlaWdodD0iMS41IiB3aWR0aD0iMSIvPjxyZWN0IGZpbGw9IndoaXRlIiB5PSIzIiB4PSI0IiBoZWlnaHQ9IjEiIHdpZHRoPSIxIi8+PHJlY3QgZmlsbD0id2hpdGUiIHk9IjQiIHg9IjMiIGhlaWdodD0iMSIgd2lkdGg9IjEiLz48L3N2Zz4=;shadow=1;" parent="1" vertex="1">
          <mxGeometry x="586.02" y="467.48" width="29.51" height="29.51" as="geometry" />
        </mxCell>
        <mxCell id="k7_C4-kCgMkRN1-nabnP-35" value="&lt;b&gt;&lt;font style=&quot;font-size: 10px;&quot;&gt;Aruco&lt;/font&gt;&lt;/b&gt;&lt;div&gt;&lt;b&gt;&lt;font style=&quot;font-size: 10px;&quot;&gt;localization pkg&lt;/font&gt;&lt;/b&gt;&lt;/div&gt;" style="text;html=1;align=center;verticalAlign=middle;resizable=0;points=[];autosize=1;strokeColor=none;fillColor=none;strokeWidth=1;" parent="1" vertex="1">
          <mxGeometry x="690" y="460.16" width="100" height="40" as="geometry" />
        </mxCell>
        <mxCell id="k7_C4-kCgMkRN1-nabnP-37" value="&lt;b&gt;&lt;font style=&quot;font-size: 10px;&quot;&gt;Transform&amp;nbsp;&lt;/font&gt;&lt;/b&gt;&lt;div&gt;&lt;b&gt;&lt;font style=&quot;font-size: 10px;&quot;&gt;tf2&lt;/font&gt;&lt;/b&gt;&lt;/div&gt;" style="text;html=1;align=center;verticalAlign=middle;resizable=0;points=[];autosize=1;strokeColor=none;fillColor=none;" parent="1" vertex="1">
          <mxGeometry x="700" y="541.98" width="80" height="40" as="geometry" />
        </mxCell>
        <mxCell id="k7_C4-kCgMkRN1-nabnP-45" style="edgeStyle=orthogonalEdgeStyle;rounded=0;orthogonalLoop=1;jettySize=auto;html=1;exitX=0;exitY=0.5;exitDx=0;exitDy=0;entryX=1;entryY=0.5;entryDx=0;entryDy=0;" parent="1" source="k7_C4-kCgMkRN1-nabnP-41" target="k7_C4-kCgMkRN1-nabnP-46" edge="1">
          <mxGeometry relative="1" as="geometry">
            <mxPoint x="625" y="665.6104347826088" as="targetPoint" />
          </mxGeometry>
        </mxCell>
        <mxCell id="k7_C4-kCgMkRN1-nabnP-41" value="" style="rounded=1;whiteSpace=wrap;html=1;fillColor=#fff2cc;strokeColor=#d6b656;strokeWidth=2;" parent="1" vertex="1">
          <mxGeometry x="700" y="644.96" width="80" height="41.02" as="geometry" />
        </mxCell>
        <mxCell id="k7_C4-kCgMkRN1-nabnP-42" value="&lt;b&gt;&lt;font style=&quot;font-size: 11px;&quot;&gt;Navigation&lt;/font&gt;&lt;/b&gt;&lt;div&gt;&lt;b&gt;&lt;font style=&quot;font-size: 11px;&quot;&gt;Nav2&lt;/font&gt;&lt;/b&gt;&lt;/div&gt;" style="text;html=1;align=center;verticalAlign=middle;resizable=0;points=[];autosize=1;strokeColor=none;fillColor=none;" parent="1" vertex="1">
          <mxGeometry x="700" y="643.96" width="80" height="40" as="geometry" />
        </mxCell>
        <mxCell id="k7_C4-kCgMkRN1-nabnP-66" style="edgeStyle=orthogonalEdgeStyle;rounded=0;orthogonalLoop=1;jettySize=auto;html=1;" parent="1" source="k7_C4-kCgMkRN1-nabnP-46" edge="1">
          <mxGeometry relative="1" as="geometry">
            <mxPoint x="400" y="665" as="targetPoint" />
          </mxGeometry>
        </mxCell>
        <mxCell id="k7_C4-kCgMkRN1-nabnP-46" value="&lt;b&gt;&lt;font style=&quot;font-size: 11px;&quot;&gt;Control of&amp;nbsp;&lt;/font&gt;&lt;/b&gt;&lt;div&gt;&lt;b&gt;&lt;font style=&quot;font-size: 11px;&quot;&gt;the pallet truck&lt;/font&gt;&lt;/b&gt;&lt;/div&gt;" style="rounded=1;whiteSpace=wrap;html=1;fillColor=#fff2cc;strokeColor=#d6b656;strokeWidth=2;" parent="1" vertex="1">
          <mxGeometry x="499" y="643.96" width="95.5" height="43.03" as="geometry" />
        </mxCell>
        <mxCell id="k7_C4-kCgMkRN1-nabnP-67" style="edgeStyle=orthogonalEdgeStyle;rounded=0;orthogonalLoop=1;jettySize=auto;html=1;exitX=0;exitY=0.25;exitDx=0;exitDy=0;entryX=0.5;entryY=0;entryDx=0;entryDy=0;" parent="1" source="k7_C4-kCgMkRN1-nabnP-5" target="k7_C4-kCgMkRN1-nabnP-5" edge="1">
          <mxGeometry relative="1" as="geometry" />
        </mxCell>
        <mxCell id="k7_C4-kCgMkRN1-nabnP-72" value="&lt;font style=&quot;font-size: 18px;&quot;&gt;Pallet truck&lt;/font&gt;" style="text;html=1;align=center;verticalAlign=middle;resizable=0;points=[];autosize=1;strokeColor=none;fillColor=none;" parent="1" vertex="1">
          <mxGeometry x="324" y="715" width="110" height="40" as="geometry" />
        </mxCell>
        <mxCell id="k7_C4-kCgMkRN1-nabnP-73" value="&lt;font style=&quot;font-size: 18px;&quot;&gt;ArUco marker&lt;/font&gt;" style="text;html=1;align=center;verticalAlign=middle;resizable=0;points=[];autosize=1;strokeColor=none;fillColor=none;shadow=0;glass=0;rounded=0;" parent="1" vertex="1">
          <mxGeometry x="90" y="548.98" width="130" height="40" as="geometry" />
        </mxCell>
        <mxCell id="k7_C4-kCgMkRN1-nabnP-74" value="&lt;font style=&quot;font-size: 18px;&quot;&gt;Camera 1&lt;/font&gt;" style="text;html=1;align=center;verticalAlign=middle;resizable=0;points=[];autosize=1;strokeColor=none;fillColor=none;" parent="1" vertex="1">
          <mxGeometry x="137" y="219" width="100" height="40" as="geometry" />
        </mxCell>
        <mxCell id="k7_C4-kCgMkRN1-nabnP-75" value="&lt;font style=&quot;font-size: 18px;&quot;&gt;Camera 2&lt;/font&gt;" style="text;html=1;align=center;verticalAlign=middle;resizable=0;points=[];autosize=1;strokeColor=none;fillColor=none;" parent="1" vertex="1">
          <mxGeometry x="302" y="208" width="100" height="40" as="geometry" />
        </mxCell>
        <mxCell id="k7_C4-kCgMkRN1-nabnP-77" value="&lt;font style=&quot;font-size: 18px;&quot;&gt;Camera 3&lt;/font&gt;" style="text;html=1;align=center;verticalAlign=middle;resizable=0;points=[];autosize=1;strokeColor=none;fillColor=none;" parent="1" vertex="1">
          <mxGeometry x="475" y="218" width="100" height="40" as="geometry" />
        </mxCell>
        <mxCell id="k7_C4-kCgMkRN1-nabnP-78" value="&lt;font style=&quot;font-size: 18px;&quot;&gt;Camera 4&lt;/font&gt;" style="text;html=1;align=center;verticalAlign=middle;resizable=0;points=[];autosize=1;strokeColor=none;fillColor=none;" parent="1" vertex="1">
          <mxGeometry x="597" y="237" width="100" height="40" as="geometry" />
        </mxCell>
        <mxCell id="k7_C4-kCgMkRN1-nabnP-79" value="&lt;font style=&quot;font-size: 11px;&quot;&gt;Determine pallet truck position&lt;/font&gt;" style="text;html=1;align=center;verticalAlign=middle;resizable=0;points=[];autosize=1;strokeColor=none;fillColor=none;" parent="1" vertex="1">
          <mxGeometry x="732" y="506.99" width="171" height="27" as="geometry" />
        </mxCell>
        <mxCell id="k7_C4-kCgMkRN1-nabnP-80" value="&lt;font style=&quot;font-size: 10px;&quot;&gt;Sending goal pose&lt;/font&gt;&lt;div&gt;&lt;font style=&quot;font-size: 10px;&quot;&gt;and&amp;nbsp;&lt;/font&gt;&lt;span style=&quot;font-size: 10px; background-color: transparent; color: light-dark(rgb(0, 0, 0), rgb(255, 255, 255));&quot;&gt;planned path&lt;/span&gt;&lt;/div&gt;" style="text;html=1;align=center;verticalAlign=middle;resizable=0;points=[];autosize=1;strokeColor=none;fillColor=none;" parent="1" vertex="1">
          <mxGeometry x="593.5" y="662.98" width="110" height="40" as="geometry" />
        </mxCell>
      </root>
    </mxGraphModel>
  </diagram>
</mxfile>
